if (_typeface_js && _typeface_js.loadFace) _typeface_js.loadFace({"glyphs":{"S":{"x_min":62,"x_max":988.84375,"ha":846,"o":"m 614 1232 q 632 1238 622 1232 q 697 1220 665 1237 q 688 1196 695 1217 q 668 1125 675 1162 q 639 1059 648 1092 l 628 1048 l 628 1030 q 598 982 611 1008 q 546 935 571 961 q 514 864 528 906 q 661 733 558 780 q 724 674 680 698 l 738 650 q 786 584 763 630 l 795 579 l 810 472 l 814 448 q 808 418 808 432 q 812 394 808 408 q 797 350 806 370 q 520 33 730 166 q 367 -9 449 -3 q 392 79 374 29 q 416 139 399 100 l 443 228 q 583 371 539 268 q 545 478 582 425 l 508 489 q 466 537 496 510 l 451 543 l 449 555 l 433 560 l 432 573 q 292 793 292 643 q 325 957 292 866 q 353 1024 334 982 q 407 1077 380 1046 q 466 1143 438 1107 q 507 1172 486 1152 q 612 1232 557 1187 l 614 1232 m 759 1179 q 765 1214 767 1198 l 777 1232 q 988 994 988 1214 q 979 946 987 969 q 952 894 969 920 q 846 882 911 893 l 828 882 l 826 882 q 808 875 818 882 l 784 875 l 758 869 l 741 869 l 727 882 q 745 947 732 913 q 715 994 739 975 l 704 1030 l 754 1166 q 759 1179 757 1173 m 252 389 l 299 389 q 289 310 289 348 q 341 193 289 234 q 314 98 334 152 q 263 -20 293 43 l 225 -9 l 207 -9 q 62 243 62 59 q 65 299 62 267 l 67 309 q 245 389 96 389 l 252 389 "},"/":{"x_min":-9.5,"x_max":1077.015625,"ha":679,"o":"m -9 171 l 372 1222 l 714 1222 l -9 171 m 717 235 l 554 -1 l 211 -1 l 1053 1222 l 1077 1222 l 717 235 "},"K":{"x_min":-21.03125,"x_max":1028.859375,"ha":785,"o":"m 442 1217 l 558 1217 l 575 1217 l 598 1217 l 615 1217 q 611 1208 612 1212 q 609 1198 609 1204 q 617 1176 609 1186 q 574 1093 590 1139 q 562 1056 567 1074 q 540 1010 552 1040 l 533 992 l 527 975 l 521 957 l 509 940 q 495 878 507 912 q 479 842 489 860 q 469 811 477 834 q 454 773 463 794 l 453 756 q 431 709 439 733 q 417 658 424 691 l 409 635 q 396 601 398 608 l 382 560 l 340 445 l 333 427 l 325 404 l 304 346 l 304 329 q 276 271 290 308 q 269 249 269 255 l 255 226 l 241 173 l 220 116 l 214 99 l 208 81 l 199 58 l 193 41 l 172 1 q 105 -11 145 1 l 88 -11 q 44 -5 65 -5 q -10 -11 23 -5 q -21 22 -21 2 q -10 64 -21 41 l 22 156 l 114 410 l 117 433 l 129 450 l 135 484 q 151 515 145 498 q 158 548 158 534 l 206 663 l 212 680 l 213 682 q 211 692 215 688 l 221 703 l 236 744 q 261 834 244 787 q 278 876 263 839 l 398 1205 l 442 1217 m 803 1193 l 823 1217 q 868 1215 838 1215 q 927 1217 902 1215 l 967 1217 l 990 1217 l 1007 1217 l 1028 1211 l 933 1044 l 921 1026 l 907 1003 l 901 986 l 885 975 l 872 957 q 832 894 857 926 l 818 871 q 744 744 777 821 l 727 733 q 702 600 701 665 l 696 583 l 688 560 l 687 542 l 687 525 q 685 516 685 522 q 686 508 685 510 l 680 491 q 663 398 668 449 l 658 369 q 647 306 648 339 q 639 237 637 280 l 633 219 q 628 191 628 205 l 612 99 l 607 70 l 608 41 l 581 1 q 552 -3 569 -3 q 518 1 535 -3 l 474 -11 l 438 1 l 416 -11 l 381 -11 q 393 62 393 23 q 392 81 393 75 l 398 94 l 402 107 q 405 114 404 111 q 407 120 406 117 l 413 138 l 408 156 l 418 184 q 420 194 420 190 q 415 208 420 201 l 427 225 q 437 277 437 252 q 434 306 437 293 l 448 346 l 448 375 l 462 415 l 453 438 l 467 461 q 465 481 465 473 q 471 519 465 498 l 463 530 l 518 680 q 545 738 527 707 l 554 761 l 554 778 l 569 818 l 577 842 q 696 1026 654 918 q 763 1130 735 1065 l 790 1176 l 803 1193 "},"7":{"x_min":99.703125,"x_max":1026.828125,"ha":779,"o":"m 421 1226 l 431 1238 q 510 1225 469 1225 q 606 1238 554 1225 q 653 1232 631 1232 q 711 1238 675 1232 l 729 1238 l 746 1238 l 764 1238 q 805 1235 779 1235 q 851 1238 832 1235 l 861 1232 l 937 1232 l 968 1238 l 997 1238 l 1026 1238 q 980 1078 1014 1172 l 966 1039 l 960 1022 q 891 946 927 992 q 836 940 870 947 l 801 940 q 781 943 796 943 q 754 940 769 943 q 723 934 742 941 l 693 946 q 699 974 695 962 q 728 1028 707 996 l 695 1033 q 651 1031 672 1031 q 602 1034 634 1031 l 553 1027 l 538 1034 l 520 1034 q 448 1028 492 1028 l 421 1034 q 378 1028 402 1034 l 357 1034 q 381 1120 362 1065 q 400 1168 386 1133 l 402 1191 l 413 1202 l 421 1226 m 649 859 q 723 870 682 859 q 792 863 750 870 l 792 834 q 744 764 764 806 q 670 659 701 724 q 625 583 644 627 l 607 566 l 593 543 l 586 525 q 489 368 538 460 q 455 309 472 345 l 432 263 l 417 239 l 411 221 l 356 116 l 330 46 l 324 29 l 284 0 q 233 -3 266 -3 q 173 0 198 -3 l 155 0 l 146 6 l 115 0 l 99 6 q 127 64 107 29 q 158 134 146 100 q 209 227 187 171 l 238 274 q 302 385 259 326 q 349 467 317 419 l 358 490 q 404 554 387 533 l 419 577 l 466 659 l 480 682 l 497 712 q 578 840 543 762 q 611 863 592 845 q 649 859 628 859 "},"d":{"x_min":-39.34375,"x_max":909.5,"ha":762,"o":"m 417 1238 l 425 1226 q 491 1234 459 1234 q 618 1197 560 1234 q 557 1063 583 1139 q 548 1038 555 1059 l 541 1016 l 531 975 q 520 954 523 961 q 514 928 518 949 q 480 856 493 889 q 457 771 468 822 l 443 747 l 432 718 l 424 695 q 405 651 411 668 q 385 572 389 607 q 374 551 377 558 q 368 525 372 546 l 348 502 l 343 473 l 336 438 l 325 408 q 296 340 311 383 q 270 256 280 296 l 263 239 l 240 175 l 232 151 q 214 108 222 132 q 198 58 208 93 l 191 41 l 180 23 q 37 -1 109 -1 q -36 6 3 -1 l -39 29 q -8 101 -23 58 q 17 187 8 147 l 24 205 q 52 261 42 233 q 55 271 53 265 q 60 286 57 278 l 68 310 q 77 338 82 351 q 109 409 89 372 l 121 444 l 137 485 l 167 566 l 180 601 q 185 618 185 616 q 200 659 199 658 l 227 730 l 382 1156 q 385 1197 386 1176 l 417 1238 m 679 1115 q 702 1202 695 1156 l 738 1238 q 909 1013 909 1200 q 851 743 909 905 q 792 601 824 669 q 754 485 775 542 q 274 -5 584 17 q 295 76 280 34 q 317 129 299 87 l 320 152 l 320 169 l 355 216 q 455 268 408 220 l 457 304 q 509 412 487 351 l 524 456 l 532 479 l 535 502 l 549 525 q 561 590 562 559 l 581 613 l 590 654 q 621 721 607 683 q 630 747 629 743 l 702 946 l 712 987 q 646 1016 695 1014 q 651 1027 649 1021 q 659 1068 659 1050 q 679 1115 674 1101 "},",":{"x_min":0,"x_max":0,"ha":161},"Y":{"x_min":180.765625,"x_max":1070.90625,"ha":818,"o":"m 391 1201 l 418 1231 q 465 1228 435 1228 q 522 1231 498 1228 l 531 1225 l 577 1225 l 578 1225 q 591 1231 584 1225 q 612 1225 598 1226 q 601 1115 600 1178 l 595 1098 l 595 1052 l 595 1035 l 594 1033 q 593 1025 593 1030 q 594 1017 593 1020 q 589 954 586 987 l 582 919 l 587 902 q 581 822 578 871 q 576 784 576 805 q 578 763 576 777 l 571 746 l 570 744 q 573 735 568 738 l 567 689 q 564 665 564 678 q 568 631 564 647 q 564 603 564 615 q 565 591 564 599 q 561 555 561 577 q 562 532 561 541 l 559 492 l 552 458 q 559 429 552 442 q 516 332 536 387 q 500 285 513 324 q 478 239 495 269 l 475 216 l 434 117 l 431 94 q 425 70 431 83 q 384 8 415 39 l 385 -3 l 207 -3 l 180 20 q 187 40 181 22 q 240 153 204 85 l 238 163 q 278 256 260 205 l 288 285 l 303 327 l 322 377 l 345 440 q 344 469 344 449 q 355 562 344 511 l 353 573 l 345 585 l 351 631 l 353 654 q 358 684 358 667 q 353 717 358 701 l 360 735 l 358 763 l 363 792 l 366 815 q 365 822 365 819 q 368 838 365 828 q 372 891 372 864 q 370 937 372 916 l 380 965 l 377 988 q 383 1059 383 1020 l 382 1081 l 387 1173 l 392 1190 l 391 1201 m 865 1208 l 888 1225 q 946 1219 918 1219 q 1021 1225 975 1219 l 1038 1225 l 1056 1225 l 1070 1219 q 1065 1201 1070 1218 q 1040 1150 1058 1182 q 968 1046 1003 1112 q 952 1035 961 1044 l 940 1017 l 926 994 l 880 931 l 865 908 l 853 891 l 786 798 l 782 775 q 759 758 769 769 l 703 683 l 685 648 q 634 619 663 631 q 648 706 632 659 l 646 717 l 647 719 q 648 726 648 722 q 647 735 648 732 l 652 781 l 649 821 l 655 838 l 648 850 l 649 868 l 651 891 l 661 931 q 765 1075 716 985 l 803 1115 l 817 1138 l 836 1161 l 865 1208 "},"E":{"x_min":-40.6875,"x_max":1019.375,"ha":775,"o":"m 578 1245 l 594 1238 l 611 1238 q 629 1239 615 1239 q 679 1233 652 1239 l 693 1238 l 732 1233 l 750 1233 q 788 1236 764 1236 q 831 1233 813 1236 l 855 1233 l 886 1238 q 950 1232 911 1232 q 983 1233 975 1232 l 1018 1233 q 1016 1219 1016 1226 q 1019 1203 1016 1211 q 997 1167 1003 1186 q 991 1127 991 1150 l 970 1086 l 968 1063 l 940 1034 q 870 1028 905 1028 q 788 1034 838 1028 q 756 1033 766 1033 l 718 1034 q 634 1028 680 1026 q 579 1040 612 1039 l 556 1040 q 519 955 539 1009 l 513 939 l 507 922 l 495 888 q 464 818 485 862 l 456 794 l 437 777 l 429 754 l 454 742 q 561 755 503 755 l 598 754 l 674 754 l 685 736 l 626 573 l 615 561 l 584 538 q 563 540 574 540 q 512 532 543 540 l 497 538 q 469 537 474 537 l 438 538 l 385 538 l 372 549 l 295 340 l 275 298 l 269 281 l 240 235 l 359 240 l 376 240 l 392 234 l 573 234 l 604 240 q 648 216 630 235 l 636 199 l 587 65 l 575 47 l 564 18 l 552 1 q 536 -11 545 0 q 471 -4 513 -4 q 444 -5 451 -4 l 368 -5 l 353 1 l 102 1 l 42 12 l 19 12 l -8 1 l -40 7 q -12 100 -33 45 l 276 894 q 320 999 288 930 l 349 1081 q 363 1115 356 1093 q 390 1209 379 1158 q 438 1245 408 1219 l 578 1245 "},"y":{"x_min":180.765625,"x_max":1070.90625,"ha":818,"o":"m 391 1201 l 418 1231 q 465 1228 435 1228 q 522 1231 498 1228 l 531 1225 l 577 1225 l 578 1225 q 591 1231 584 1225 q 612 1225 598 1226 q 601 1115 600 1178 l 595 1098 l 595 1052 l 595 1035 l 594 1033 q 593 1025 593 1030 q 594 1017 593 1020 q 589 954 586 987 l 582 919 l 587 902 q 581 822 578 871 q 576 784 576 805 q 578 763 576 777 l 571 746 l 570 744 q 573 735 568 738 l 567 689 q 564 665 564 678 q 568 631 564 647 q 564 603 564 615 q 565 591 564 599 q 561 555 561 577 q 562 532 561 541 l 559 492 l 552 458 q 559 429 552 442 q 516 332 536 387 q 500 285 513 324 q 478 239 495 269 l 475 216 l 434 117 l 431 94 q 425 70 431 83 q 384 8 415 39 l 385 -3 l 207 -3 l 180 20 q 187 40 181 22 q 240 153 204 85 l 238 163 q 278 256 260 205 l 288 285 l 303 327 l 322 377 l 345 440 q 344 469 344 449 q 355 562 344 511 l 353 573 l 345 585 l 351 631 l 353 654 q 358 684 358 667 q 353 717 358 701 l 360 735 l 358 763 l 363 792 l 366 815 q 365 822 365 819 q 368 838 365 828 q 372 891 372 864 q 370 937 372 916 l 380 965 l 377 988 q 383 1059 383 1020 l 382 1081 l 387 1173 l 392 1190 l 391 1201 m 865 1208 l 888 1225 q 946 1219 918 1219 q 1021 1225 975 1219 l 1038 1225 l 1056 1225 l 1070 1219 q 1065 1201 1070 1218 q 1040 1150 1058 1182 q 968 1046 1003 1112 q 952 1035 961 1044 l 940 1017 l 926 994 l 880 931 l 865 908 l 853 891 l 786 798 l 782 775 q 759 758 769 769 l 703 683 l 685 648 q 634 619 663 631 q 648 706 632 659 l 646 717 l 647 719 q 648 726 648 722 q 647 735 648 732 l 652 781 l 649 821 l 655 838 l 648 850 l 649 868 l 651 891 l 661 931 q 765 1075 716 985 l 803 1115 l 817 1138 l 836 1161 l 865 1208 "},"\"":{"x_min":0,"x_max":0,"ha":161},"‹":{"x_min":0,"x_max":0,"ha":218},"„":{"x_min":0,"x_max":0,"ha":273},"g":{"x_min":65.78125,"x_max":954.9375,"ha":806,"o":"m 695 1231 l 686 1191 l 668 1145 l 668 1143 q 670 1133 666 1138 l 664 1116 l 658 1098 q 574 1029 634 1051 q 532 976 556 1002 q 511 901 529 944 l 473 797 l 464 773 q 448 698 455 744 q 417 629 433 673 l 406 600 l 364 484 l 358 466 l 349 443 l 345 414 l 335 385 l 322 350 l 311 322 l 304 286 l 291 252 q 336 199 318 232 q 317 154 328 184 q 293 49 298 103 l 286 31 q 248 -9 266 14 q 65 200 65 29 q 105 387 65 280 q 165 524 126 448 q 182 586 171 556 q 213 657 191 613 q 206 669 215 663 l 221 680 q 232 723 223 697 q 255 773 240 746 q 266 820 255 791 q 269 836 266 826 q 279 855 272 845 l 290 884 q 291 902 291 889 q 290 919 291 912 q 316 958 309 939 q 322 988 320 969 l 344 1017 l 355 1046 q 621 1238 463 1163 l 695 1231 m 807 1232 q 824 1238 814 1232 q 954 1069 954 1202 q 947 1000 954 1040 q 925 906 944 959 l 916 884 q 811 849 864 880 l 760 837 l 722 844 q 751 945 729 885 q 773 1000 762 974 q 734 1052 763 1027 q 750 1106 739 1078 q 778 1174 758 1129 l 795 1220 l 805 1232 l 807 1232 m 642 597 q 710 605 674 597 q 792 599 735 599 l 813 599 q 786 495 811 558 l 788 483 l 781 466 l 771 454 l 771 437 l 761 425 l 760 408 q 749 380 752 392 q 730 309 736 347 q 695 228 710 277 l 689 211 l 680 188 l 672 165 l 644 89 l 636 66 l 608 -9 q 578 -14 593 -14 q 522 43 532 -14 q 387 0 433 0 q 346 20 356 0 l 401 170 l 428 211 q 534 325 503 239 q 549 385 545 358 l 491 385 l 492 420 l 555 593 l 609 599 q 642 597 628 597 "},"–":{"x_min":0,"x_max":0,"ha":464},"ƒ":{"x_min":0,"x_max":0,"ha":391},"e":{"x_min":-40.6875,"x_max":1019.375,"ha":775,"o":"m 514 1245 l 531 1245 l 578 1245 l 594 1238 l 611 1238 q 629 1239 615 1239 q 679 1233 652 1239 l 693 1238 l 732 1233 l 750 1233 q 788 1236 764 1236 q 831 1233 813 1236 l 855 1233 l 886 1238 q 950 1232 911 1232 q 983 1233 975 1232 l 1018 1233 q 1016 1219 1016 1226 q 1019 1203 1016 1211 q 997 1167 1003 1186 q 991 1127 991 1150 l 970 1086 l 968 1063 l 940 1034 q 870 1028 905 1028 q 788 1034 838 1028 q 756 1033 766 1033 l 718 1034 q 634 1028 680 1026 q 579 1040 612 1039 l 556 1040 q 519 955 539 1009 l 513 939 l 507 922 l 501 905 l 495 888 q 464 818 485 862 l 456 794 l 437 777 l 429 754 l 454 742 q 561 755 503 755 l 598 754 l 616 754 l 634 754 l 674 754 l 685 736 l 643 619 l 626 573 l 615 561 l 584 538 q 563 540 574 540 q 512 532 543 540 l 497 538 q 469 537 474 537 l 438 538 l 421 538 l 403 538 l 385 538 l 372 549 l 334 445 l 295 340 l 275 298 l 269 281 l 240 235 l 359 240 l 376 240 l 392 234 l 415 234 l 479 234 l 497 234 l 573 234 l 604 240 q 648 216 630 235 l 636 199 l 593 82 l 587 65 l 575 47 l 564 18 l 552 1 q 536 -11 545 0 q 471 -4 513 -4 q 444 -5 451 -4 l 427 -5 l 409 -5 l 368 -5 l 353 1 l 160 1 l 102 1 l 42 12 l 19 12 l -8 1 l -40 7 q -12 100 -33 45 l 276 894 q 320 999 288 930 l 349 1081 q 363 1115 356 1093 q 390 1209 379 1158 q 438 1245 408 1219 l 514 1245 "},"J":{"x_min":38.65625,"x_max":993.59375,"ha":765,"o":"m 784 1196 q 848 1231 809 1218 q 917 1220 876 1220 q 978 1226 942 1220 l 993 1219 q 955 1091 982 1168 q 917 996 933 1033 l 911 978 q 903 953 910 973 q 888 915 901 947 l 880 892 l 874 875 l 863 846 q 846 780 860 821 l 836 754 l 830 737 l 823 720 l 809 680 l 802 662 l 794 640 l 788 622 l 781 605 l 775 587 l 767 565 l 739 490 l 733 473 l 735 461 l 714 421 l 708 404 l 699 380 l 679 323 l 656 260 l 649 243 l 643 226 l 637 208 l 609 163 q 316 7 485 20 q 337 80 322 39 q 348 111 347 107 q 350 120 350 116 q 349 128 350 123 l 365 157 l 360 174 q 439 249 390 216 l 434 266 q 485 369 465 313 q 501 421 495 395 q 516 458 509 437 q 531 501 526 486 q 551 544 543 521 q 562 587 560 570 q 571 607 564 592 q 577 628 574 614 l 593 656 l 600 691 l 616 720 l 621 749 q 643 794 634 766 l 664 869 q 680 907 673 886 q 694 949 689 931 l 714 989 l 721 1024 l 750 1105 l 773 1150 q 784 1196 774 1168 m 347 484 l 326 426 l 303 363 l 302 346 l 288 323 l 287 305 l 274 282 l 267 265 l 264 242 l 261 219 l 294 196 l 269 128 q 259 86 265 103 q 213 7 243 46 l 215 -4 q 38 176 38 40 q 60 283 38 223 q 140 438 86 353 q 295 484 206 444 l 347 484 "},"|":{"x_min":0,"x_max":0,"ha":136},"^":{"x_min":0,"x_max":0,"ha":224},"q":{"x_min":52.90625,"x_max":988.84375,"ha":840,"o":"m 752 1172 q 781 1238 758 1196 q 845 1214 812 1233 l 860 1208 l 878 1208 l 888 1202 l 921 1178 l 923 1166 l 947 1166 q 988 1082 956 1128 q 985 1022 984 1059 q 965 919 983 987 q 945 848 961 894 l 945 830 l 923 788 q 912 740 922 767 l 894 692 q 857 572 885 646 q 833 524 845 553 l 833 506 q 816 494 825 503 q 824 482 822 492 q 786 408 800 447 q 770 350 778 387 q 727 248 749 312 l 704 218 l 697 200 l 691 182 q 617 110 663 149 l 604 92 q 619 3 602 51 l 607 -32 q 539 -87 571 -51 q 440 -159 490 -106 l 417 -159 q 401 -89 401 -129 q 406 -38 401 -63 q 349 -15 387 -21 q 344 20 352 3 q 385 114 366 60 l 398 152 l 413 195 q 514 338 482 245 q 572 515 525 386 l 586 554 l 587 572 l 600 590 l 606 608 l 609 632 l 619 662 l 634 686 l 639 716 l 655 758 l 672 788 q 687 826 680 807 q 714 919 703 867 l 725 950 l 688 997 l 752 1172 m 372 1052 q 639 1225 482 1159 l 691 1219 q 650 1138 664 1177 q 628 1046 635 1096 l 615 1028 q 539 950 590 989 l 512 878 l 506 860 l 469 758 l 460 734 l 451 710 l 442 686 l 434 662 l 427 644 l 419 620 l 402 590 q 391 550 398 569 q 369 500 384 533 l 341 422 l 332 398 l 329 374 l 314 350 q 292 269 309 317 q 279 236 282 243 q 314 182 286 205 q 311 171 311 176 q 312 164 311 166 q 285 112 295 139 q 273 38 272 76 l 239 -21 l 164 -15 q 52 223 52 74 q 94 428 52 315 q 148 554 117 493 l 268 883 l 283 908 l 357 1028 l 372 1052 "},"b":{"x_min":-40.015625,"x_max":948.890625,"ha":774,"o":"m 740 1245 q 778 1258 757 1245 q 948 1067 948 1219 q 917 916 948 1001 q 812 704 884 825 q 770 669 784 698 q 670 622 729 660 l 733 568 l 743 563 q 746 518 746 543 q 718 372 746 449 q 659 251 697 314 q 281 -14 544 13 q 308 80 287 25 l 332 144 l 332 162 l 333 180 q 488 319 451 219 q 500 363 496 343 q 523 410 514 386 q 532 456 532 433 q 476 539 532 509 q 500 597 490 569 q 523 669 515 639 l 538 710 q 681 836 645 735 q 692 875 687 850 q 716 924 710 903 q 726 971 726 950 q 676 1057 725 1023 q 683 1073 678 1062 q 689 1110 689 1092 q 714 1165 706 1142 q 733 1246 728 1201 q 740 1245 735 1245 m 392 1216 q 497 1246 438 1240 q 556 1229 528 1243 l 603 1229 q 608 1211 602 1218 q 583 1149 596 1188 q 558 1075 568 1109 l 544 1052 l 537 1034 l 526 1016 l 522 993 l 510 957 l 501 934 l 499 911 l 458 799 l 445 781 q 438 746 439 763 q 425 714 434 738 q 413 675 416 693 l 402 663 l 389 628 q 368 551 376 593 l 343 498 l 324 463 q 312 416 322 441 l 306 381 q 261 283 282 340 q 242 221 250 251 l 244 210 l 229 186 l 212 139 l 205 104 l 194 57 l 166 15 q 54 -8 105 -8 q -35 10 7 -8 l -40 27 l 105 428 l 154 546 l 169 604 q 202 675 185 632 l 240 781 l 257 829 l 278 887 l 279 888 q 276 898 281 894 l 287 911 l 345 1069 q 356 1096 348 1076 q 386 1199 371 1140 l 392 1216 "},"D":{"x_min":-39.34375,"x_max":909.5,"ha":762,"o":"m 417 1238 l 425 1226 q 491 1234 459 1234 q 618 1197 560 1234 q 557 1063 583 1139 q 548 1038 555 1059 l 541 1016 l 531 975 q 520 954 523 961 q 514 928 518 949 q 480 856 493 889 q 457 771 468 822 l 443 747 l 424 695 q 405 651 411 668 q 385 572 389 607 q 374 551 377 558 q 368 525 372 546 l 348 502 l 343 473 l 336 438 l 325 408 q 296 340 311 383 q 270 256 280 296 l 232 151 q 214 108 222 132 q 198 58 208 93 l 191 41 l 180 23 q 37 -1 109 -1 q -36 6 3 -1 l -39 29 q -8 101 -23 58 q 17 187 8 147 l 24 205 q 52 261 42 233 q 55 271 53 265 q 60 286 57 278 l 68 310 q 77 338 82 351 q 109 409 89 372 l 121 444 l 137 485 l 180 601 q 185 618 185 616 q 200 659 199 658 l 227 730 l 382 1156 q 385 1197 386 1176 l 417 1238 m 679 1115 q 702 1202 695 1156 l 738 1238 q 909 1013 909 1200 q 851 743 909 905 q 792 601 824 669 q 754 485 775 542 q 274 -5 584 17 q 295 76 280 34 q 317 129 299 87 l 320 152 l 320 169 l 355 216 q 455 268 408 220 l 457 304 q 509 412 487 351 l 524 456 l 532 479 l 535 502 l 549 525 q 561 590 562 559 l 581 613 l 590 654 q 621 721 607 683 q 630 747 629 743 l 702 946 l 712 987 q 646 1016 695 1014 q 651 1027 649 1021 q 659 1068 659 1050 q 679 1115 674 1101 "},"z":{"x_min":-42.734375,"x_max":1018.6875,"ha":767,"o":"m 432 1231 l 501 1231 l 518 1231 l 617 1231 l 640 1231 l 817 1224 l 855 1231 l 889 1231 l 988 1231 l 1018 1219 l 970 1085 l 961 1062 l 951 1051 l 943 1028 q 845 917 894 987 q 790 848 822 892 l 751 802 l 738 784 q 672 698 708 752 l 658 691 l 652 674 l 636 662 l 628 639 l 604 622 q 503 489 570 565 l 437 402 l 427 390 l 413 367 l 385 338 l 360 304 l 332 274 l 322 245 q 384 239 347 239 q 461 245 423 239 q 521 234 488 234 l 540 240 l 564 240 l 581 240 l 604 240 l 628 240 l 647 245 l 651 227 q 640 200 644 210 q 622 129 627 162 l 603 94 q 602 86 602 89 q 603 77 602 84 l 590 60 l 590 42 l 579 13 l 552 2 q 488 -5 524 -5 q 419 2 452 -5 l 355 2 l 317 1 l 274 2 l 260 -3 q 212 -10 238 -1 q 204 2 213 -3 l 167 -3 q 103 3 141 3 q 77 2 83 3 l 59 2 l 42 2 l 1 2 l -15 2 l -42 8 l -35 29 l -25 54 l -10 94 l 0 106 l 2 129 l 23 187 l 46 222 q 149 343 105 268 q 223 436 191 384 l 242 454 l 253 471 q 299 535 274 494 q 363 598 324 564 l 372 622 q 416 680 398 648 l 430 686 l 442 703 l 466 738 q 527 825 501 773 q 656 987 579 879 q 592 994 632 994 q 565 993 572 994 l 518 993 l 501 993 l 484 993 l 404 998 l 331 1005 l 401 1196 l 432 1231 "},"w":{"x_min":213.953125,"x_max":1316.859375,"ha":1048,"o":"m 861 1226 q 877 1238 868 1227 q 929 1220 904 1236 l 918 1145 l 912 1127 l 909 1069 q 899 1011 911 1046 q 893 947 901 984 l 891 924 q 896 890 889 907 l 889 872 l 889 870 q 891 860 887 864 q 878 779 880 828 q 876 766 876 773 q 880 750 876 759 q 872 681 871 723 l 866 634 l 866 626 q 871 599 866 613 l 866 552 q 864 540 864 544 q 866 524 864 531 l 858 483 l 856 384 q 792 257 837 333 l 771 216 l 765 198 l 754 181 l 747 164 l 733 141 l 726 123 l 714 106 l 700 82 l 685 59 l 672 25 l 653 2 l 584 2 l 596 134 l 604 187 l 603 198 l 614 291 q 626 390 626 333 l 631 419 l 628 442 q 632 472 633 458 l 640 506 l 638 535 l 645 570 l 649 611 q 651 631 651 620 q 650 645 651 641 q 666 740 666 690 q 665 767 666 748 q 678 866 680 812 q 681 906 681 885 l 687 953 q 763 1069 710 1006 l 774 1098 l 792 1115 l 820 1162 l 834 1185 l 853 1203 l 861 1226 m 1119 1238 l 1299 1238 l 1316 1238 q 1305 1199 1313 1222 q 1219 1035 1278 1126 l 1213 1017 l 1185 970 q 1127 860 1168 926 q 1076 768 1115 818 l 1078 756 q 1037 692 1061 723 l 1026 663 l 1018 640 l 979 628 l 968 663 q 977 683 971 666 q 990 755 990 719 q 984 802 990 777 q 992 854 992 826 l 992 872 l 997 901 l 994 924 l 1002 947 l 991 965 q 985 983 992 976 q 1037 1075 1003 1034 q 1076 1151 1047 1103 q 1091 1183 1084 1164 q 1099 1214 1098 1204 l 1119 1238 m 408 1226 l 588 1226 l 605 1226 l 623 1226 q 624 1195 624 1216 q 600 1051 624 1134 l 605 1034 l 599 1017 q 598 1007 598 1014 q 598 999 598 1002 l 592 982 l 596 958 q 579 883 585 928 l 573 866 l 570 843 q 566 805 566 826 q 567 785 566 792 l 558 744 l 552 727 q 550 717 550 724 q 551 709 550 712 l 551 692 l 542 669 l 537 576 q 526 512 528 545 q 520 448 519 483 l 503 402 q 448 297 475 362 l 438 286 q 414 239 425 269 l 400 216 l 386 193 l 347 117 l 331 88 l 314 59 l 298 30 l 288 2 q 273 3 284 3 q 221 -4 248 3 q 214 54 212 16 q 219 64 215 55 q 223 90 223 80 q 221 106 223 98 q 231 152 231 130 q 230 164 231 160 l 237 181 q 249 280 248 227 l 252 303 q 264 367 263 337 l 275 396 l 271 419 q 284 500 284 457 l 294 529 l 291 552 q 295 581 296 566 q 309 651 309 623 q 308 663 309 659 l 323 721 l 326 761 l 333 779 l 340 831 l 343 854 l 344 889 l 353 930 l 369 1040 l 376 1058 l 390 1191 l 408 1226 "},"$":{"x_min":0,"x_max":0,"ha":431},"™":{"x_min":0,"x_max":0,"ha":462},"\\":{"x_min":4.75,"x_max":1077.015625,"ha":679,"o":"m 734 1222 l 1077 1222 l 694 171 l 734 1222 m 372 1222 l 396 1222 l 347 -1 l 4 -1 l 12 235 l 372 1222 "},"’":{"x_min":0,"x_max":0,"ha":163},"~":{"x_min":0,"x_max":0,"ha":431},"-":{"x_min":174.296875,"x_max":441.515625,"ha":361,"o":"m 247 735 l 360 729 l 378 729 l 427 735 l 441 729 l 411 613 l 394 566 l 388 549 l 357 543 l 282 543 l 264 543 l 247 543 l 229 543 l 191 549 l 174 549 q 189 604 179 575 q 232 694 204 646 l 235 717 l 247 735 "},"Q":{"x_min":52.90625,"x_max":988.84375,"ha":840,"o":"m 752 1172 q 781 1238 758 1196 q 845 1214 812 1233 l 860 1208 l 878 1208 l 888 1202 l 921 1178 l 923 1166 l 947 1166 q 988 1082 956 1128 q 985 1022 984 1059 q 965 919 983 987 q 945 848 961 894 l 945 830 l 923 788 q 912 740 922 767 l 894 692 q 857 572 885 646 q 833 524 845 553 l 833 506 q 816 494 825 503 q 824 482 822 492 q 786 408 800 447 q 770 350 778 387 q 727 248 749 312 l 704 218 l 697 200 l 691 182 q 617 110 663 149 l 604 92 q 619 3 602 51 l 607 -32 q 539 -87 571 -51 q 440 -159 490 -106 l 417 -159 q 401 -89 401 -129 q 406 -38 401 -63 q 349 -15 387 -21 q 344 20 352 3 q 385 114 366 60 l 398 152 l 413 195 q 514 338 482 245 q 572 515 525 386 l 586 554 l 587 572 l 600 590 l 606 608 l 609 632 l 619 662 l 634 686 l 639 716 l 655 758 l 672 788 q 687 826 680 807 q 714 919 703 867 l 725 950 l 688 997 l 752 1172 m 372 1052 q 639 1225 482 1159 l 691 1219 q 650 1138 664 1177 q 628 1046 635 1096 l 615 1028 q 539 950 590 989 l 512 878 l 506 860 l 469 758 l 460 734 l 451 710 l 442 686 l 434 662 l 427 644 l 419 620 l 402 590 q 391 550 398 569 q 369 500 384 533 l 341 422 l 332 398 l 329 374 l 314 350 q 292 269 309 317 q 279 236 282 243 q 314 182 286 205 q 311 171 311 176 q 312 164 311 166 q 285 112 295 139 q 273 38 272 76 l 239 -21 l 164 -15 q 52 223 52 74 q 94 428 52 315 q 148 554 117 493 l 268 883 l 283 908 l 357 1028 l 372 1052 "},"M":{"x_min":-52.21875,"x_max":1159.078125,"ha":920,"o":"m 971 1216 l 1003 1238 q 1091 1225 1037 1225 q 1150 1229 1111 1225 l 1159 1222 q 1139 1156 1153 1197 l 1119 1106 l 1112 1089 l 1106 1072 l 1079 1002 l 1072 985 l 1073 973 q 1068 944 1067 958 q 1051 910 1056 925 q 1043 880 1048 904 q 1037 869 1039 873 q 1034 857 1037 868 q 1026 841 1029 849 l 1023 828 l 1007 805 l 1000 770 l 991 747 l 973 701 l 962 672 q 945 613 956 657 l 920 550 l 921 538 l 907 515 q 900 489 906 508 q 882 451 893 472 q 869 404 881 433 l 862 370 l 836 335 l 839 312 q 806 242 828 283 l 794 196 l 788 179 q 782 169 784 175 q 781 161 781 165 l 773 143 l 767 126 q 762 117 764 122 q 760 109 760 113 l 751 86 l 727 22 q 619 9 677 9 q 543 14 588 9 q 589 189 548 80 l 599 201 q 613 253 603 226 q 646 322 623 281 q 657 372 648 347 q 674 409 662 388 q 695 479 678 435 l 800 763 q 811 788 808 781 q 826 845 818 807 l 934 1123 q 963 1198 946 1157 l 971 1216 m 400 1213 l 430 1230 q 443 1230 433 1230 q 491 1222 467 1230 q 539 1227 508 1227 l 556 1226 l 597 1225 q 588 1140 588 1184 q 590 1103 588 1122 l 581 1080 l 588 1067 l 573 968 l 575 945 q 573 930 573 939 q 575 915 573 923 l 567 881 q 561 832 561 858 q 566 787 561 809 q 557 740 557 766 q 558 723 557 728 l 550 688 l 575 676 l 637 762 l 667 808 l 686 843 l 701 854 l 717 877 q 758 865 739 875 q 752 846 758 859 q 718 778 739 810 l 720 766 l 708 749 l 706 731 l 697 708 l 691 690 l 659 609 q 649 587 653 599 q 640 545 642 569 l 628 528 l 624 504 q 569 378 597 458 l 559 337 l 495 233 l 481 227 l 475 210 l 467 192 l 447 169 l 438 146 l 415 118 l 401 95 q 392 77 396 89 q 387 60 391 74 l 360 20 q 298 9 334 12 q 312 91 298 46 l 317 132 l 311 150 l 321 173 l 314 185 l 315 188 q 316 194 316 190 q 314 202 316 199 l 322 237 l 328 266 l 324 284 l 327 307 l 324 331 l 338 424 l 327 442 q 338 518 338 479 q 334 565 338 542 q 339 614 339 584 q 338 635 339 628 l 345 652 l 337 676 q 345 744 345 709 q 344 770 345 752 l 344 799 q 345 813 345 808 q 343 828 345 821 q 350 886 350 853 q 346 939 350 912 l 353 956 l 346 968 l 356 1009 l 354 1050 l 348 1080 l 400 1213 m 208 673 l 202 673 l 208 673 l 239 648 q 238 612 238 637 q 241 548 238 578 l 235 531 q 237 505 237 519 q 227 438 237 475 l 234 426 q 223 371 223 400 q 224 356 223 361 l 219 327 l 221 304 l 216 274 q 219 240 219 262 q 217 204 219 231 l 172 88 l 168 47 l 161 30 l 146 6 l 134 -10 q 74 -14 118 -9 l 10 -11 l -7 -18 l -23 -11 l -36 -17 l -52 -10 q -50 4 -50 -4 q -52 18 -50 11 q -36 53 -45 29 q -21 111 -27 77 q -4 149 -9 135 q 3 174 -4 151 l 27 238 l 40 256 l 58 302 l 72 354 l 78 383 l 110 464 q 118 488 110 464 q 158 574 136 535 l 174 615 l 179 644 l 202 673 l 208 673 "},"C":{"x_min":36.421875,"x_max":944.765625,"ha":786,"o":"m 779 1220 q 796 1238 790 1225 q 944 1042 944 1202 q 942 999 944 1029 q 927 923 940 962 q 900 867 918 898 q 838 843 873 864 q 739 808 796 836 l 725 802 l 704 808 q 722 876 707 836 q 737 913 733 905 l 749 947 q 703 1011 739 986 l 779 1220 m 645 1220 q 661 1232 651 1221 l 699 1226 q 666 1151 691 1198 q 642 1069 659 1117 l 636 1052 l 628 1029 q 535 965 573 1016 q 521 931 529 953 q 495 837 505 887 l 482 820 l 474 796 l 473 779 q 459 752 463 765 q 452 721 454 738 q 425 667 437 699 q 419 646 419 651 l 376 529 l 360 483 l 347 465 l 345 442 l 333 425 q 320 383 330 412 q 299 332 314 363 l 275 233 q 297 167 297 209 q 290 117 297 144 q 267 68 275 91 q 252 13 261 53 l 242 1 l 186 -10 q 36 152 82 34 q 68 303 33 213 l 91 367 q 115 448 99 406 l 125 460 l 137 497 l 155 541 l 203 674 q 212 705 205 689 q 226 738 219 724 l 229 762 l 245 790 l 298 936 l 316 971 l 337 1011 q 407 1092 370 1043 l 417 1104 l 457 1133 l 469 1151 q 551 1185 505 1162 l 571 1191 l 589 1191 l 626 1215 l 645 1220 m 591 448 l 682 413 l 717 396 l 730 384 q 714 325 725 352 q 657 216 695 272 q 356 6 531 6 l 326 7 q 367 105 341 53 l 376 129 q 387 175 377 143 l 405 192 l 403 204 q 512 280 464 221 q 522 307 513 281 q 553 407 536 342 l 591 448 "},"[":{"x_min":0,"x_max":0,"ha":191},"L":{"x_min":-34.59375,"x_max":634.8125,"ha":755,"o":"m 499 1217 q 511 1223 505 1217 q 541 1224 524 1224 q 618 1217 579 1224 q 583 1076 612 1155 q 546 987 569 1038 l 543 964 q 531 938 535 950 q 522 907 527 929 l 511 890 q 503 871 509 887 q 486 809 492 838 l 474 774 l 456 740 l 442 700 l 438 660 q 406 591 423 635 q 397 562 398 570 l 353 442 l 346 407 l 326 367 l 271 217 q 340 200 299 200 q 394 206 365 200 q 438 197 411 197 q 472 200 450 197 q 537 191 501 191 q 616 200 571 191 l 634 188 q 604 86 627 146 q 582 27 598 66 l 575 10 q 518 -7 549 0 q 435 0 486 0 q 387 -1 411 0 l 42 -1 l 22 5 l 0 5 l -22 10 l -34 21 l 69 309 q 80 336 74 319 l 86 352 q 105 407 96 380 q 124 452 113 422 q 141 504 134 479 l 160 544 l 387 1183 l 409 1211 l 451 1217 l 497 1217 l 499 1217 l 499 1217 "},"!":{"x_min":0,"x_max":0,"ha":169}," ":{"x_min":0,"x_max":0,"ha":265},"{":{"x_min":0,"x_max":0,"ha":285},"X":{"x_min":-34.859375,"x_max":1095.203125,"ha":847,"o":"m 1061 1228 l 1083 1239 q 1095 1210 1095 1227 q 1088 1180 1095 1199 q 948 1004 1026 1115 l 937 993 l 924 976 l 909 953 l 835 856 l 814 833 l 799 811 l 784 788 l 769 765 l 741 737 l 725 744 q 731 793 731 766 q 721 861 731 829 q 725 888 725 871 q 723 908 725 901 q 730 941 730 924 q 728 961 730 951 l 734 1019 l 730 1037 l 737 1054 q 829 1168 788 1099 q 885 1236 855 1194 l 1061 1228 m 557 1226 q 619 1236 584 1225 q 665 1193 647 1227 q 656 1127 656 1162 q 664 1063 656 1094 q 655 999 655 1034 q 659 952 655 981 q 666 940 657 943 q 653 870 653 907 q 655 841 653 856 l 646 806 q 645 776 645 788 q 648 723 645 761 q 642 665 642 696 l 640 648 l 641 636 l 640 634 q 639 625 639 629 q 640 618 639 620 l 639 589 l 639 559 q 634 521 634 542 q 639 477 634 498 l 632 460 l 638 431 q 634 399 634 414 q 645 348 634 372 l 636 325 q 637 296 637 307 q 636 254 637 284 l 642 225 q 636 189 636 207 q 645 148 636 169 q 635 84 635 118 q 640 37 635 60 l 639 20 l 623 -3 q 582 0 599 0 q 561 -1 565 0 l 521 1 l 498 2 l 458 4 l 442 5 l 413 6 q 406 74 406 38 q 409 123 406 99 l 404 141 l 411 158 q 405 171 412 164 q 414 228 414 198 q 406 276 414 253 l 413 305 l 415 382 l 413 417 l 411 441 l 415 464 l 415 493 l 416 523 l 422 651 l 415 663 l 418 687 l 424 727 q 425 749 425 735 q 421 792 425 769 l 429 839 l 425 874 l 431 915 l 430 956 q 432 987 432 975 q 428 1050 432 1011 l 429 1068 q 430 1081 430 1072 q 425 1115 430 1098 q 429 1142 429 1129 q 420 1186 429 1164 l 434 1220 q 505 1233 469 1233 q 557 1226 531 1233 m 318 498 l 339 491 q 332 373 331 438 l 319 315 q 328 268 328 293 q 317 214 328 242 q 246 107 299 162 q 178 11 220 56 q 145 9 161 9 q 93 14 118 9 l -8 7 l -34 25 l -16 72 q 96 208 38 124 l 107 219 l 127 241 l 147 276 l 165 293 l 178 310 l 196 338 l 214 355 q 273 441 236 396 q 298 474 279 458 l 318 498 "},"P":{"x_min":-46.125,"x_max":916.953125,"ha":744,"o":"m 709 1206 q 711 1214 711 1212 l 742 1238 q 916 1054 916 1208 q 884 899 916 989 l 867 858 q 855 821 862 841 q 472 542 756 548 q 499 633 480 583 l 513 671 l 535 730 q 650 823 611 753 q 682 928 666 862 l 706 992 q 647 1039 697 1035 q 653 1056 647 1040 q 680 1115 663 1084 l 704 1197 q 709 1206 706 1199 m 507 1232 l 530 1232 l 548 1232 l 571 1232 l 584 1220 q 564 1137 580 1181 q 520 1045 550 1097 q 484 911 514 991 l 473 898 l 473 881 l 437 782 l 426 752 l 418 729 l 379 624 l 370 600 l 364 583 l 366 571 l 351 531 l 338 495 l 329 455 l 291 349 l 282 326 l 240 209 l 233 191 l 217 144 l 200 98 l 183 51 l 162 10 q 20 -3 101 -3 q -46 -1 -11 -3 q 3 155 -33 54 l 13 182 l 28 220 l 111 448 l 120 472 l 126 507 l 155 571 q 191 688 166 619 l 333 1074 q 345 1118 339 1103 q 402 1232 363 1167 l 507 1232 "},"%":{"x_min":0,"x_max":0,"ha":431},"#":{"x_min":0,"x_max":0,"ha":431},"_":{"x_min":0,"x_max":0,"ha":332},"+":{"x_min":0,"x_max":0,"ha":431},"‚":{"x_min":0,"x_max":0,"ha":159},")":{"x_min":0,"x_max":0,"ha":260},"'":{"x_min":0,"x_max":0,"ha":115},"}":{"x_min":0,"x_max":0,"ha":244},"‰":{"x_min":0,"x_max":0,"ha":494},"a":{"x_min":-42.046875,"x_max":851.84375,"ha":834,"o":"m 639 1234 q 688 1258 663 1232 q 769 1231 718 1231 q 833 1240 795 1231 q 851 1211 835 1225 q 825 1089 833 1164 l 814 1059 l 811 1036 l 810 1034 q 809 1028 809 1032 q 811 1019 809 1021 l 799 973 l 797 949 l 786 920 q 794 908 792 918 l 793 906 q 792 900 792 902 q 794 891 792 897 q 788 878 792 889 q 775 810 777 850 q 761 738 761 777 q 765 699 761 721 q 743 594 745 650 l 734 554 q 722 455 725 511 q 705 362 710 415 l 699 345 l 699 343 q 701 332 697 338 l 695 286 l 687 263 l 696 240 l 668 147 l 670 135 l 659 42 l 644 2 l 541 7 l 524 7 q 475 2 502 9 l 459 7 l 431 7 q 430 27 430 13 q 458 194 430 92 q 400 200 436 200 q 366 199 381 200 q 359 210 368 205 l 368 251 q 448 391 421 310 l 501 408 q 512 501 502 448 l 510 513 l 511 515 q 509 524 513 521 q 516 541 510 527 q 530 600 526 569 q 545 659 533 624 q 545 672 545 663 q 552 722 545 693 l 554 746 l 559 775 q 579 862 559 807 l 577 874 l 577 903 l 585 944 l 590 973 q 595 1019 589 988 q 598 1026 596 1020 q 600 1037 600 1032 q 596 1054 600 1046 l 606 1095 l 606 1129 l 619 1165 l 620 1199 l 639 1234 m 434 845 l 470 833 q 447 740 452 786 l 442 727 q 432 664 432 699 l 423 641 l 424 630 l 415 606 l 413 583 l 383 467 l 382 465 q 381 457 381 461 q 382 449 381 455 l 376 432 l 373 408 q 324 321 362 367 l 307 275 l 295 257 l 288 240 l 263 187 l 254 176 l 245 153 q 196 48 219 114 l 185 36 l 171 13 q 71 -4 126 14 l -1 2 l -18 2 l -36 2 l -42 18 q 7 106 -27 60 q 83 234 29 157 l 124 316 l 143 350 l 169 391 l 216 472 l 226 501 l 247 524 q 300 623 261 564 l 368 746 l 396 792 l 405 815 l 434 845 "},"T":{"x_min":200.078125,"x_max":1034.296875,"ha":800,"o":"m 1007 1231 l 1034 1226 q 1009 1101 1032 1166 q 967 1012 994 1060 l 853 1012 l 835 1012 l 818 1012 l 809 1018 l 784 1012 l 768 1018 l 743 948 l 737 931 l 701 833 l 693 810 l 666 736 l 655 707 l 632 643 l 623 620 l 621 597 l 602 563 l 600 540 l 588 505 l 573 483 q 546 390 566 442 l 533 356 l 521 321 l 506 281 l 487 229 q 479 209 484 223 q 459 137 467 175 l 451 114 l 444 97 l 430 56 l 415 16 q 324 -1 373 -1 q 267 5 296 -1 q 200 -7 236 -7 l 202 62 q 229 115 220 87 q 239 148 236 133 l 274 246 l 276 248 q 273 257 278 254 q 295 307 289 291 q 322 407 308 343 q 339 442 331 421 q 349 482 347 463 l 357 505 q 376 547 370 532 q 391 597 382 564 l 495 885 l 516 925 l 537 1000 l 530 1012 q 463 1001 503 1012 q 412 1008 443 1008 q 390 1007 396 1008 l 373 1007 l 356 1007 l 340 1012 q 357 1091 340 1047 q 364 1110 362 1106 l 387 1174 l 392 1203 l 402 1214 q 486 1221 440 1221 q 519 1220 512 1221 l 537 1220 l 600 1220 l 704 1220 l 720 1220 l 748 1218 q 832 1226 780 1218 l 850 1226 l 890 1226 l 908 1226 l 936 1226 l 982 1226 l 1007 1231 "},"—":{"x_min":0,"x_max":0,"ha":606},"=":{"x_min":0,"x_max":0,"ha":431},"N":{"x_min":-42.125,"x_max":981.390625,"ha":788,"o":"m 189 13 l 68 -3 q 41 -5 54 -5 q -42 26 -10 -5 l -17 95 l -9 112 l 25 210 l 34 233 l 40 250 l 47 267 q 58 314 54 288 q 75 349 69 331 q 85 389 83 369 q 104 429 97 410 q 115 469 109 443 q 122 486 117 473 q 134 538 130 509 q 143 556 139 546 q 147 573 147 566 l 162 596 q 176 654 164 618 q 185 677 182 671 q 195 707 189 690 q 231 786 205 737 l 238 804 l 259 797 q 271 751 257 775 q 266 694 266 721 q 283 595 266 644 l 280 572 l 288 532 l 291 463 l 293 452 l 303 434 l 295 411 l 308 382 l 302 353 l 306 330 q 304 317 304 324 q 306 302 304 309 q 252 193 273 250 q 223 71 232 139 l 212 60 l 189 13 m 567 24 q 551 13 562 23 l 532 11 q 459 42 491 11 q 462 81 462 66 q 449 175 462 124 l 452 198 l 445 209 q 446 231 446 223 q 437 296 446 261 l 437 313 l 433 330 q 434 350 434 344 q 422 411 434 380 l 428 428 l 425 452 l 414 469 q 416 490 416 479 q 401 544 416 518 q 404 563 404 553 q 403 578 404 567 l 403 580 q 401 590 405 586 l 402 603 q 387 677 402 641 l 393 694 l 387 723 l 379 751 l 373 780 q 374 801 374 787 q 359 867 374 834 l 365 884 q 352 942 357 904 l 345 953 l 343 965 q 345 988 345 976 q 332 1046 345 1018 l 342 1103 q 355 1134 347 1113 q 365 1167 362 1155 l 380 1207 q 431 1215 406 1215 q 484 1207 452 1215 l 528 1218 l 552 1218 l 567 1212 l 566 1200 q 581 1097 566 1158 l 581 1096 q 584 1086 579 1090 q 581 1075 581 1081 l 582 1068 q 581 1056 581 1065 q 584 1010 581 1047 l 590 993 q 588 984 588 990 q 589 976 588 978 l 590 947 q 601 884 588 915 l 595 866 l 600 849 q 605 814 599 832 l 604 780 l 604 751 l 609 716 l 613 681 l 616 658 l 621 624 l 619 589 l 624 555 q 640 456 625 512 q 639 437 639 449 q 649 387 639 411 q 647 366 647 379 q 649 341 647 352 l 660 306 q 657 266 655 287 l 604 122 l 604 110 l 593 93 l 567 24 m 760 548 l 720 565 l 740 617 l 735 669 l 734 727 l 727 738 l 727 755 l 720 767 q 720 779 720 770 q 718 824 720 788 l 712 842 q 708 859 713 851 l 710 882 l 716 911 l 704 928 l 707 951 l 696 969 q 705 1009 704 989 l 722 1055 q 731 1082 725 1063 q 764 1153 745 1119 q 773 1180 770 1174 l 785 1211 l 822 1217 q 858 1216 836 1216 q 956 1223 904 1216 l 973 1223 q 981 1210 972 1216 q 958 1119 975 1168 q 923 1037 944 1081 l 923 1020 l 886 922 q 878 896 882 907 q 865 865 872 881 q 854 818 853 833 l 847 801 l 829 749 l 820 726 l 798 652 l 777 576 l 760 548 "},"⁄":{"x_min":0,"x_max":0,"ha":159},"2":{"x_min":-25.1875,"x_max":962,"ha":804,"o":"m 707 1214 l 680 1140 l 674 1123 q 668 1111 672 1121 q 663 1077 661 1090 l 657 1060 l 651 1043 l 638 1025 q 518 917 556 997 q 476 877 493 900 l 411 905 l 396 911 l 387 917 l 371 922 l 356 928 l 349 940 l 332 940 l 316 945 l 318 963 q 680 1238 425 1181 l 707 1214 m 748 1128 q 795 1220 764 1171 l 812 1220 q 962 1010 962 1146 q 939 895 962 958 q 819 687 906 803 q 734 612 777 660 l 713 601 l 698 589 l 677 578 l 661 567 l 643 549 q 584 515 618 537 l 561 498 l 545 486 l 522 469 l 498 452 l 477 441 l 352 349 l 299 280 q 222 292 261 279 l 213 290 l 205 292 l 182 292 l 148 292 l 135 287 l 117 287 l 99 298 l 110 328 l 124 366 q 244 475 186 406 q 283 504 263 487 l 335 538 l 341 555 q 429 607 384 567 q 592 693 500 628 l 628 727 q 681 796 653 755 l 696 807 q 736 890 719 845 q 755 951 746 918 q 732 1040 732 991 q 748 1128 732 1082 m -6 103 q 62 229 15 165 q 143 221 95 221 q 203 224 178 221 l 218 217 l 228 229 q 292 221 255 221 q 341 224 320 221 q 371 220 359 220 q 409 224 384 220 l 430 218 l 453 218 q 501 224 469 216 q 567 217 525 217 q 596 217 590 217 l 623 229 q 658 183 660 222 l 611 69 l 604 51 l 596 29 l 590 12 q 574 0 581 12 q 538 2 559 2 q 446 -5 505 2 l 431 0 l 408 0 l 345 0 l 322 0 l 265 0 l 236 0 l 196 0 q 132 5 172 5 q 47 0 89 5 l 32 6 l 12 0 l -25 6 q -6 103 -26 50 "},"j":{"x_min":38.65625,"x_max":993.59375,"ha":765,"o":"m 784 1196 q 848 1231 809 1218 q 917 1220 876 1220 q 978 1226 942 1220 l 993 1219 q 955 1091 982 1168 q 917 996 933 1033 l 911 978 q 903 953 910 973 q 888 915 901 947 l 880 892 l 874 875 l 863 846 q 846 780 860 821 l 836 754 l 830 737 l 823 720 l 809 680 l 802 662 l 794 640 l 788 622 l 781 605 l 775 587 l 767 565 l 739 490 l 733 473 l 735 461 l 714 421 l 708 404 l 699 380 l 679 323 l 656 260 l 649 243 l 643 226 l 637 208 l 609 163 q 316 7 485 20 q 337 80 322 39 q 348 111 347 107 q 350 120 350 116 q 349 128 350 123 l 365 157 l 360 174 q 439 249 390 216 l 434 266 q 485 369 465 313 q 501 421 495 395 q 516 458 509 437 q 531 501 526 486 q 551 544 543 521 q 562 587 560 570 q 571 607 564 592 q 577 628 574 614 l 593 656 l 600 691 l 616 720 l 621 749 q 643 794 634 766 l 664 869 q 680 907 673 886 q 694 949 689 931 l 714 989 l 721 1024 l 750 1105 l 773 1150 q 784 1196 774 1168 m 347 484 l 326 426 l 303 363 l 302 346 l 288 323 l 287 305 l 274 282 l 267 265 l 264 242 l 261 219 l 294 196 l 269 128 q 259 86 265 103 q 213 7 243 46 l 215 -4 q 38 176 38 40 q 60 283 38 223 q 140 438 86 353 q 295 484 206 444 l 347 484 "},"Z":{"x_min":-42.734375,"x_max":1018.6875,"ha":767,"o":"m 432 1231 l 501 1231 l 518 1231 l 617 1231 l 640 1231 l 817 1224 l 855 1231 l 889 1231 l 988 1231 l 1018 1219 l 970 1085 l 961 1062 l 951 1051 l 943 1028 q 845 917 894 987 q 790 848 822 892 l 751 802 l 738 784 q 672 698 708 752 l 658 691 l 652 674 l 636 662 l 628 639 l 604 622 q 503 489 570 565 l 437 402 l 427 390 l 413 367 l 385 338 l 360 304 l 332 274 l 322 245 q 384 239 347 239 q 461 245 423 239 q 521 234 488 234 l 540 240 l 564 240 l 581 240 l 604 240 l 628 240 l 647 245 l 651 227 q 640 200 644 210 q 622 129 627 162 l 603 94 q 602 86 602 89 q 603 77 602 84 l 590 60 l 590 42 l 579 13 l 552 2 q 488 -5 524 -5 q 419 2 452 -5 l 355 2 l 317 1 l 274 2 l 260 -3 q 212 -10 238 -1 q 204 2 213 -3 l 167 -3 q 103 3 141 3 q 77 2 83 3 l 59 2 l 42 2 l 1 2 l -15 2 l -42 8 l -35 29 l -25 54 l -10 94 l 0 106 l 2 129 l 23 187 l 46 222 q 149 343 105 268 q 223 436 191 384 l 242 454 l 253 471 q 299 535 274 494 q 363 598 324 564 l 372 622 q 416 680 398 648 l 430 686 l 442 703 l 466 738 q 527 825 501 773 q 656 987 579 879 q 592 994 632 994 q 565 993 572 994 l 518 993 l 501 993 l 484 993 l 404 998 l 331 1005 l 401 1196 l 432 1231 "},"u":{"x_min":50.1875,"x_max":1006.484375,"ha":775,"o":"m 404 1231 l 474 1231 l 492 1231 l 592 1231 l 615 1231 q 592 1146 609 1191 q 569 1089 584 1121 l 569 1088 q 571 1078 567 1083 q 548 1031 558 1059 l 541 1013 q 531 979 541 1009 l 514 937 l 507 902 q 471 820 488 868 l 462 778 l 449 743 l 436 708 l 408 632 l 402 614 l 396 596 l 368 520 l 362 502 l 355 489 q 351 455 350 472 l 336 432 q 324 379 334 409 q 295 320 311 346 l 295 303 l 280 261 l 274 244 l 271 221 q 290 169 290 202 q 278 109 290 143 q 257 62 271 97 q 239 3 244 23 q 217 -8 227 0 q 50 179 74 18 q 56 214 56 195 q 54 238 56 225 l 62 259 q 91 356 75 297 l 98 373 q 102 382 99 375 q 104 391 104 388 l 166 561 l 178 579 l 184 596 q 202 666 190 634 q 219 708 210 688 q 259 833 230 754 l 267 855 l 369 1136 l 374 1150 l 381 1171 q 388 1190 381 1174 l 397 1213 l 404 1231 m 932 1231 l 956 1231 l 973 1231 l 996 1231 l 1006 1225 q 978 1109 1002 1176 q 956 1054 969 1086 l 947 1035 q 934 978 938 1010 l 922 961 l 923 948 l 917 931 l 904 913 l 895 873 l 887 849 l 849 743 l 841 720 l 834 702 l 825 679 l 787 573 l 780 555 l 774 537 l 743 438 l 734 414 l 728 396 l 715 362 l 704 332 l 696 291 q 654 209 676 260 q 621 168 636 194 q 346 -8 510 48 q 335 9 345 2 l 349 53 l 369 103 l 375 120 l 376 122 q 373 133 378 128 l 393 185 q 482 285 446 223 l 497 291 l 501 320 q 530 449 518 371 l 666 837 l 672 872 l 696 937 q 736 1031 716 978 l 742 1046 q 752 1089 748 1063 l 779 1166 q 826 1231 791 1194 l 932 1231 "},"1":{"x_min":67.140625,"x_max":710.78125,"ha":445,"o":"m 586 1231 l 604 1231 l 704 1231 q 710 1219 701 1224 l 685 1148 l 678 1131 l 642 1031 l 634 1007 l 606 931 l 595 901 l 572 837 l 505 654 l 499 637 l 484 614 l 476 590 l 470 572 q 467 563 467 565 l 461 549 q 442 478 457 518 l 428 443 l 422 426 l 404 378 l 398 361 l 392 338 q 358 267 381 308 l 360 255 l 352 232 l 337 190 l 330 173 l 318 155 l 317 137 q 289 78 301 112 q 281 55 283 63 l 272 15 q 260 17 268 17 q 243 15 253 17 q 148 -10 195 -10 l 129 -8 q 84 -2 110 -8 l 67 -2 q 78 21 71 4 q 86 50 83 36 q 119 121 102 76 l 128 150 l 274 549 l 290 578 q 308 646 294 607 l 314 661 l 320 678 l 337 707 q 347 746 341 730 q 366 790 352 761 q 385 857 372 819 q 398 890 395 883 l 430 978 q 411 990 431 990 q 327 972 384 990 q 354 1085 331 1024 q 377 1142 366 1119 q 516 1231 445 1170 l 586 1231 "},"›":{"x_min":0,"x_max":0,"ha":218},"k":{"x_min":-21.03125,"x_max":1028.859375,"ha":785,"o":"m 442 1217 l 558 1217 l 575 1217 l 598 1217 l 615 1217 q 611 1208 612 1212 q 609 1198 609 1204 q 617 1176 609 1186 q 574 1093 590 1139 q 562 1056 567 1074 q 540 1010 552 1040 l 533 992 l 527 975 l 521 957 l 509 940 q 495 878 507 912 q 479 842 489 860 q 469 811 477 834 q 454 773 463 794 l 453 756 q 431 709 439 733 q 417 658 424 691 l 409 635 q 396 601 398 608 l 382 560 l 340 445 l 333 427 l 325 404 l 304 346 l 304 329 q 276 271 290 308 q 269 249 269 255 l 255 226 l 241 173 l 220 116 l 214 99 l 208 81 l 199 58 l 193 41 l 172 1 q 105 -11 145 1 l 88 -11 q 44 -5 65 -5 q -10 -11 23 -5 q -21 22 -21 2 q -10 64 -21 41 l 22 156 l 114 410 l 117 433 l 129 450 l 135 484 q 151 515 145 498 q 158 548 158 534 l 206 663 l 212 680 l 213 682 q 211 692 215 688 l 221 703 l 236 744 q 261 834 244 787 q 278 876 263 839 l 398 1205 l 442 1217 m 803 1193 l 823 1217 q 868 1215 838 1215 q 927 1217 902 1215 l 967 1217 l 990 1217 l 1007 1217 l 1028 1211 l 933 1044 l 921 1026 l 907 1003 l 901 986 l 885 975 l 872 957 q 832 894 857 926 l 818 871 q 744 744 777 821 l 727 733 q 702 600 701 665 l 696 583 l 688 560 l 687 542 l 687 525 q 685 516 685 522 q 686 508 685 510 l 680 491 q 663 398 668 449 l 658 369 q 647 306 648 339 q 639 237 637 280 l 633 219 q 628 191 628 205 l 612 99 l 607 70 l 608 41 l 581 1 q 552 -3 569 -3 q 518 1 535 -3 l 474 -11 l 438 1 l 416 -11 l 381 -11 q 393 62 393 23 q 392 81 393 75 l 398 94 l 402 107 q 405 114 404 111 q 407 120 406 117 l 413 138 l 408 156 l 418 184 q 420 194 420 190 q 415 208 420 201 l 427 225 q 437 277 437 252 q 434 306 437 293 l 448 346 l 448 375 l 462 415 l 453 438 l 467 461 q 465 481 465 473 q 471 519 465 498 l 463 530 l 518 680 q 545 738 527 707 l 554 761 l 554 778 l 569 818 l 577 842 q 696 1026 654 918 q 763 1130 735 1065 l 790 1176 l 803 1193 "},"<":{"x_min":204.140625,"x_max":990.890625,"ha":674,"o":"m 223 609 l 648 1219 l 990 1219 l 552 609 l 546 -1 l 204 -1 l 223 609 "},"t":{"x_min":200.078125,"x_max":1034.296875,"ha":800,"o":"m 1007 1231 l 1034 1226 q 1009 1101 1032 1166 q 967 1012 994 1060 l 853 1012 l 835 1012 l 818 1012 l 809 1018 l 784 1012 l 768 1018 l 743 948 l 737 931 l 701 833 l 693 810 l 666 736 l 655 707 l 632 643 l 623 620 l 621 597 l 602 563 l 600 540 l 588 505 l 573 483 q 546 390 566 442 l 533 356 l 521 321 l 506 281 l 487 229 q 479 209 484 223 q 459 137 467 175 l 451 114 l 444 97 l 430 56 l 415 16 q 324 -1 373 -1 q 267 5 296 -1 q 200 -7 236 -7 l 202 62 q 229 115 220 87 q 239 148 236 133 l 274 246 l 276 248 q 273 257 278 254 q 295 307 289 291 q 322 407 308 343 q 339 442 331 421 q 349 482 347 463 l 357 505 q 376 547 370 532 q 391 597 382 564 l 495 885 l 516 925 l 537 1000 l 530 1012 q 463 1001 503 1012 q 412 1008 443 1008 q 390 1007 396 1008 l 373 1007 l 356 1007 l 340 1012 q 357 1091 340 1047 q 364 1110 362 1106 l 387 1174 l 392 1203 l 402 1214 q 486 1221 440 1221 q 519 1220 512 1221 l 537 1220 l 600 1220 l 704 1220 l 720 1220 l 748 1218 q 832 1226 780 1218 l 850 1226 l 890 1226 l 908 1226 l 936 1226 l 982 1226 l 1007 1231 "},"W":{"x_min":213.953125,"x_max":1316.859375,"ha":1048,"o":"m 861 1226 q 877 1238 868 1227 q 929 1220 904 1236 l 918 1145 l 912 1127 l 909 1069 q 899 1011 911 1046 q 893 947 901 984 l 891 924 q 896 890 889 907 l 889 872 l 889 870 q 891 860 887 864 q 878 779 880 828 q 876 766 876 773 q 880 750 876 759 q 872 681 871 723 l 866 634 l 866 626 q 871 599 866 613 l 866 552 q 864 540 864 544 q 866 524 864 531 l 858 483 l 856 384 q 792 257 837 333 l 771 216 l 765 198 l 754 181 l 747 164 l 733 141 l 726 123 l 714 106 l 700 82 l 685 59 l 672 25 l 653 2 l 584 2 l 596 134 l 604 187 l 603 198 l 614 291 q 626 390 626 333 l 631 419 l 628 442 q 632 472 633 458 l 640 506 l 638 535 l 645 570 l 649 611 q 651 631 651 620 q 650 645 651 641 q 666 740 666 690 q 665 767 666 748 q 678 866 680 812 q 681 906 681 885 l 687 953 q 763 1069 710 1006 l 774 1098 l 792 1115 l 820 1162 l 834 1185 l 853 1203 l 861 1226 m 1119 1238 l 1316 1238 q 1305 1199 1313 1222 q 1219 1035 1278 1126 l 1213 1017 l 1185 970 q 1127 860 1168 926 q 1076 768 1115 818 l 1078 756 q 1037 692 1061 723 l 1018 640 l 979 628 l 968 663 q 977 683 971 666 q 990 755 990 719 q 984 802 990 777 q 992 854 992 826 l 992 872 l 997 901 l 994 924 l 1002 947 l 991 965 q 985 983 992 976 q 1037 1075 1003 1034 q 1076 1151 1047 1103 q 1091 1183 1084 1164 q 1099 1214 1098 1204 l 1119 1238 m 408 1226 l 623 1226 q 624 1195 624 1216 q 600 1051 624 1134 l 605 1034 l 599 1017 q 598 1007 598 1014 q 598 999 598 1002 l 592 982 l 596 958 q 579 883 585 928 l 573 866 l 570 843 q 566 805 566 826 q 567 785 566 792 l 558 744 l 552 727 q 550 717 550 724 q 551 709 550 712 l 551 692 l 542 669 l 537 576 q 526 512 528 545 q 520 448 519 483 l 503 402 q 448 297 475 362 l 438 286 q 414 239 425 269 l 400 216 l 386 193 l 347 117 l 331 88 l 314 59 l 298 30 l 288 2 q 273 3 284 3 q 221 -4 248 3 q 214 54 212 16 q 219 64 215 55 q 223 90 223 80 q 221 106 223 98 q 231 152 231 130 q 230 164 231 160 l 237 181 q 249 280 248 227 l 252 303 q 264 367 263 337 l 275 396 l 271 419 q 284 500 284 457 l 294 529 l 291 552 q 295 581 296 566 q 309 651 309 623 q 308 663 309 659 l 323 721 l 326 761 l 333 779 l 340 831 l 343 854 l 344 889 l 353 930 l 369 1040 l 376 1058 l 390 1191 l 408 1226 "},"v":{"x_min":224.1875,"x_max":1032.484375,"ha":781,"o":"m 857 1231 l 961 1231 l 985 1231 l 1002 1231 l 1025 1231 q 1032 1219 1023 1224 q 940 1045 1007 1148 q 895 969 928 1010 l 887 946 l 872 923 l 839 864 l 827 847 l 819 824 l 796 777 l 776 754 l 757 719 l 741 691 q 694 609 728 657 l 647 510 l 614 487 q 612 512 612 504 q 631 598 612 550 l 624 609 l 637 708 l 637 725 q 653 830 650 767 q 654 843 654 838 q 652 859 654 851 l 649 882 l 679 934 l 689 946 l 710 986 l 724 1010 l 744 1051 l 763 1085 l 775 1103 q 822 1184 789 1132 l 837 1207 l 857 1231 m 502 1213 q 515 1219 508 1213 l 603 1207 q 591 1073 593 1159 l 589 1056 l 583 1038 l 577 1021 l 582 1004 q 578 993 580 1001 q 570 940 568 969 l 561 899 q 560 890 560 896 q 561 882 560 884 l 560 864 q 558 850 558 857 q 561 835 558 844 l 555 818 l 558 795 q 544 707 544 755 l 538 690 q 532 640 532 666 q 535 603 532 625 l 527 580 l 514 498 l 513 481 l 508 435 q 500 365 498 405 q 495 318 493 340 l 491 277 l 489 237 q 432 144 470 186 q 360 11 411 90 l 350 -1 q 290 -6 316 -6 q 228 -1 264 -6 q 228 8 228 2 q 224 34 228 22 q 230 51 225 36 q 252 167 252 110 q 249 213 252 188 q 254 226 252 220 q 263 283 265 256 q 269 318 269 303 l 281 382 l 278 405 q 282 435 282 418 l 296 487 l 297 557 q 299 565 299 559 q 298 574 299 571 l 311 609 l 305 626 l 318 661 q 329 771 318 705 q 337 833 337 801 q 336 852 337 846 q 351 911 345 877 l 343 922 l 349 969 q 365 1062 363 1006 l 378 1160 l 393 1201 q 474 1214 431 1214 l 501 1213 l 502 1213 "},">":{"x_min":1.359375,"x_max":788.09375,"ha":674,"o":"m 343 -1 l 1 -1 l 440 609 l 445 1219 l 788 1219 l 769 609 l 343 -1 "},"s":{"x_min":62,"x_max":988.84375,"ha":846,"o":"m 614 1232 q 632 1238 622 1232 q 697 1220 665 1237 q 688 1196 695 1217 q 668 1125 675 1162 q 639 1059 648 1092 l 628 1048 l 628 1030 q 598 982 611 1008 q 546 935 571 961 q 514 864 528 906 q 661 733 558 780 q 724 674 680 698 l 738 650 q 786 584 763 630 l 795 579 l 810 472 l 814 448 q 808 418 808 432 q 812 394 808 408 q 797 350 806 370 q 520 33 730 166 q 367 -9 449 -3 q 392 79 374 29 q 416 139 399 100 l 443 228 q 583 371 539 268 q 545 478 582 425 l 508 489 q 466 537 496 510 l 451 543 l 449 555 l 433 560 l 432 573 q 292 793 292 643 q 325 957 292 866 q 353 1024 334 982 q 407 1077 380 1046 q 466 1143 438 1107 q 507 1172 486 1152 q 612 1232 557 1187 l 614 1232 m 759 1179 q 765 1214 767 1198 l 777 1232 q 988 994 988 1214 q 979 946 987 969 q 952 894 969 920 q 846 882 911 893 l 828 882 l 826 882 q 808 875 818 882 l 784 875 l 758 869 l 741 869 l 727 882 q 745 947 732 913 q 715 994 739 975 l 704 1030 l 754 1166 q 759 1179 757 1173 m 252 389 l 299 389 q 289 310 289 348 q 341 193 289 234 q 314 98 334 152 q 263 -20 293 43 l 225 -9 l 207 -9 q 62 243 62 59 q 65 299 62 267 l 67 309 q 245 389 96 389 l 252 389 "},"B":{"x_min":-40.015625,"x_max":948.890625,"ha":774,"o":"m 740 1245 q 778 1258 757 1245 q 948 1067 948 1219 q 917 916 948 1001 q 812 704 884 825 q 770 669 784 698 q 670 622 729 660 l 733 568 l 743 563 q 746 518 746 543 q 718 372 746 449 q 659 251 697 314 q 281 -14 544 13 q 308 80 287 25 l 332 144 l 332 162 l 333 180 q 488 319 451 219 q 500 363 496 343 q 523 410 514 386 q 532 456 532 433 q 476 539 532 509 q 500 597 490 569 q 523 669 515 639 l 538 710 q 681 836 645 735 q 692 875 687 850 q 716 924 710 903 q 726 971 726 950 q 676 1057 725 1023 q 683 1073 678 1062 q 689 1110 689 1092 q 714 1165 706 1142 q 733 1246 728 1201 q 740 1245 735 1245 m 392 1216 q 497 1246 438 1240 q 556 1229 528 1243 l 603 1229 q 608 1211 602 1218 q 583 1149 596 1188 q 558 1075 568 1109 l 544 1052 l 537 1034 l 526 1016 l 522 993 l 510 957 l 501 934 l 499 911 l 458 799 l 445 781 q 438 746 439 763 q 425 714 434 738 q 413 675 416 693 l 402 663 l 389 628 q 368 551 376 593 l 343 498 l 324 463 q 312 416 322 441 l 306 381 q 261 283 282 340 q 242 221 250 251 l 244 210 l 229 186 l 212 139 l 205 104 l 194 57 l 166 15 q 54 -8 105 -8 q -35 10 7 -8 l -40 27 l 105 428 l 154 546 l 169 604 q 202 675 185 632 l 240 781 l 257 829 l 278 887 l 279 888 q 276 898 281 894 l 287 911 l 345 1069 q 356 1096 348 1076 q 386 1199 371 1140 l 392 1216 "},"…":{"x_min":0,"x_max":0,"ha":537},"?":{"x_min":0,"x_max":0,"ha":385},"H":{"x_min":-25.765625,"x_max":1077.015625,"ha":819,"o":"m 402 1215 q 535 1245 461 1242 q 635 1233 571 1245 l 598 1117 l 592 1099 l 584 1076 l 577 1059 l 571 1041 q 558 1011 562 1023 q 541 943 549 985 q 523 907 531 928 q 513 867 515 886 l 501 850 q 499 839 501 849 q 493 826 495 831 q 478 770 491 802 q 469 745 474 757 l 448 704 q 481 698 464 698 l 480 690 q 486 664 480 677 l 459 588 l 452 571 l 435 524 q 370 489 413 487 l 328 373 l 322 356 l 314 333 l 307 315 l 297 286 l 290 268 q 280 245 282 249 q 266 188 269 214 q 239 123 248 149 q 213 42 231 101 l 201 25 l 195 7 l 173 -4 q 115 5 147 5 q 77 2 101 5 q 61 3 70 3 q 42 2 51 3 q 22 -4 33 2 l -25 7 q 4 128 -20 58 q 53 240 23 180 l 72 309 l 84 327 q 96 374 89 354 q 122 431 105 396 q 148 522 131 475 l 165 565 l 188 628 l 195 646 l 402 1215 m 811 1175 q 856 1233 824 1197 l 1077 1233 q 1032 1132 1056 1194 q 994 1006 1011 1070 l 977 977 l 967 931 l 954 913 l 942 884 q 918 797 930 851 l 897 757 l 894 733 l 855 640 l 856 628 l 842 605 l 844 594 l 837 576 l 819 542 l 806 507 l 799 472 l 781 437 q 753 344 765 394 l 746 327 l 721 257 l 715 240 l 679 141 l 670 118 l 643 42 l 636 25 l 630 7 l 560 7 l 543 7 l 444 7 l 421 7 l 404 7 q 426 87 409 41 q 438 118 435 112 l 532 390 q 553 441 541 411 q 572 501 563 470 q 531 519 544 500 q 548 553 541 537 q 559 594 551 563 l 589 675 q 651 704 609 698 q 664 734 660 722 q 682 820 678 774 q 693 842 688 828 q 699 867 697 853 l 739 960 l 745 977 l 744 989 l 765 1047 q 792 1108 780 1076 q 811 1175 805 1143 "},"c":{"x_min":36.421875,"x_max":944.765625,"ha":786,"o":"m 779 1220 q 796 1238 790 1225 q 944 1042 944 1202 q 942 999 944 1029 q 927 923 940 962 q 900 867 918 898 q 838 843 873 864 q 739 808 796 836 l 725 802 l 704 808 q 722 876 707 836 q 737 913 733 905 l 749 947 q 703 1011 739 986 l 779 1220 m 645 1220 q 661 1232 651 1221 l 699 1226 q 666 1151 691 1198 q 642 1069 659 1117 l 636 1052 l 628 1029 q 535 965 573 1016 q 521 931 529 953 q 495 837 505 887 l 482 820 l 474 796 l 473 779 q 459 752 463 765 q 452 721 454 738 q 425 667 437 699 q 419 646 419 651 l 376 529 l 360 483 l 347 465 l 345 442 l 333 425 q 320 383 330 412 q 299 332 314 363 l 275 233 q 297 167 297 209 q 290 117 297 144 q 267 68 275 91 q 252 13 261 53 l 242 1 l 186 -10 q 36 152 82 34 q 68 303 33 213 l 91 367 q 115 448 99 406 l 125 460 l 137 497 l 155 541 l 203 674 q 212 705 205 689 q 226 738 219 724 l 229 762 l 245 790 l 298 936 l 316 971 l 337 1011 q 407 1092 370 1043 l 417 1104 l 457 1133 l 469 1151 q 551 1185 505 1162 l 571 1191 l 589 1191 l 626 1215 l 645 1220 m 591 448 l 682 413 l 717 396 l 730 384 q 714 325 725 352 q 657 216 695 272 q 356 6 531 6 l 326 7 q 367 105 341 53 l 376 129 q 387 175 377 143 l 405 192 l 403 204 q 512 280 464 221 q 522 307 513 281 q 553 407 536 342 l 591 448 "},"&":{"x_min":0,"x_max":0,"ha":330},"I":{"x_min":-24.421875,"x_max":614.46875,"ha":372,"o":"m 444 1222 q 486 1231 461 1222 l 495 1224 q 545 1231 521 1231 q 614 1219 581 1231 l 592 1127 q 569 1081 580 1110 l 571 1069 l 565 1051 l 558 1034 l 548 1005 l 512 908 l 506 890 l 485 832 l 474 803 l 445 722 l 407 618 l 399 595 l 384 555 l 378 538 l 372 521 l 365 503 l 338 429 l 332 411 l 325 393 l 300 324 l 294 307 l 258 209 l 250 186 l 208 70 l 202 53 l 185 7 q 63 -10 140 7 q -3 2 36 2 q -24 1 -19 2 l -17 36 l 101 365 l 102 382 l 118 411 l 125 446 l 141 475 l 149 509 q 155 528 149 515 q 181 584 166 557 l 180 595 l 243 769 l 251 792 l 287 890 q 312 969 300 934 q 352 1069 324 1001 l 356 1098 l 369 1115 l 375 1150 l 396 1208 l 425 1225 q 444 1222 436 1222 "},"•":{"x_min":0,"x_max":0,"ha":262},"G":{"x_min":65.78125,"x_max":954.9375,"ha":806,"o":"m 695 1231 l 686 1191 l 668 1145 l 668 1143 q 670 1133 666 1138 l 664 1116 l 658 1098 q 574 1029 634 1051 q 532 976 556 1002 q 511 901 529 944 l 473 797 l 464 773 q 448 698 455 744 q 417 629 433 673 l 406 600 l 364 484 l 358 466 l 349 443 l 345 414 l 335 385 l 322 350 l 311 322 l 304 286 l 291 252 q 336 199 318 232 q 317 154 328 184 q 293 49 298 103 l 286 31 q 248 -9 266 14 q 65 200 65 29 q 105 387 65 280 q 165 524 126 448 q 182 586 171 556 q 213 657 191 613 q 206 669 215 663 l 221 680 q 232 723 223 697 q 255 773 240 746 q 266 820 255 791 q 269 836 266 826 q 279 855 272 845 l 290 884 q 291 902 291 889 q 290 919 291 912 q 316 958 309 939 q 322 988 320 969 l 344 1017 l 355 1046 q 621 1238 463 1163 l 695 1231 m 807 1232 q 824 1238 814 1232 q 954 1069 954 1202 q 947 1000 954 1040 q 925 906 944 959 l 916 884 q 811 849 864 880 l 760 837 l 722 844 q 751 945 729 885 q 773 1000 762 974 q 734 1052 763 1027 q 750 1106 739 1078 q 778 1174 758 1129 l 795 1220 l 805 1232 l 807 1232 m 642 597 q 710 605 674 597 q 792 599 735 599 l 813 599 q 786 495 811 558 l 788 483 l 781 466 l 771 454 l 771 437 l 761 425 l 760 408 q 749 380 752 392 q 730 309 736 347 q 695 228 710 277 l 689 211 l 680 188 l 672 165 l 644 89 l 636 66 l 608 -9 q 578 -14 593 -14 q 522 43 532 -14 q 387 0 433 0 q 346 20 356 0 l 401 170 l 428 211 q 534 325 503 239 q 549 385 545 358 l 491 385 l 492 420 l 555 593 l 609 599 q 642 597 628 597 "},"(":{"x_min":0,"x_max":0,"ha":228},"`":{"x_min":0,"x_max":0,"ha":242},"U":{"x_min":50.1875,"x_max":1006.484375,"ha":775,"o":"m 404 1231 l 474 1231 l 492 1231 l 592 1231 l 615 1231 q 592 1146 609 1191 q 569 1089 584 1121 l 569 1088 q 571 1078 567 1083 q 548 1031 558 1059 l 541 1013 q 531 979 541 1009 l 514 937 l 507 902 q 471 820 488 868 l 462 778 l 449 743 l 436 708 l 408 632 l 402 614 l 396 596 l 368 520 l 362 502 l 355 489 q 351 455 350 472 l 336 432 q 324 379 334 409 q 295 320 311 346 l 295 303 l 280 261 l 274 244 l 271 221 q 290 169 290 202 q 278 109 290 143 q 257 62 271 97 q 239 3 244 23 q 217 -8 227 0 q 50 179 74 18 q 56 214 56 195 q 54 238 56 225 l 62 259 q 91 356 75 297 l 98 373 q 102 382 99 375 q 104 391 104 388 l 166 561 l 178 579 l 184 596 q 202 666 190 634 q 219 708 210 688 q 259 833 230 754 l 267 855 l 369 1136 l 374 1150 l 381 1171 q 388 1190 381 1174 l 397 1213 l 404 1231 m 932 1231 l 956 1231 l 973 1231 l 996 1231 l 1006 1225 q 978 1109 1002 1176 q 956 1054 969 1086 l 947 1035 q 934 978 938 1010 l 922 961 l 923 948 l 917 931 l 904 913 l 895 873 l 887 849 l 849 743 l 841 720 l 834 702 l 825 679 l 787 573 l 780 555 l 774 537 l 743 438 l 734 414 l 728 396 l 715 362 l 704 332 l 696 291 q 654 209 676 260 q 621 168 636 194 q 346 -8 510 48 q 335 9 345 2 l 349 53 l 369 103 l 375 120 l 376 122 q 373 133 378 128 l 393 185 q 482 285 446 223 l 497 291 l 501 320 q 530 449 518 371 l 666 837 l 672 872 l 696 937 q 736 1031 716 978 l 742 1046 q 752 1089 748 1063 l 779 1166 q 826 1231 791 1194 l 932 1231 "},"◊":{"x_min":0,"x_max":0,"ha":165},"F":{"x_min":-44.765625,"x_max":1007.15625,"ha":763,"o":"m 434 1245 l 550 1245 l 565 1238 l 629 1238 q 673 1233 644 1238 l 691 1233 l 772 1233 l 815 1238 q 844 1236 827 1236 q 884 1238 862 1236 l 893 1233 l 911 1233 l 940 1233 l 977 1238 l 1007 1226 q 991 1166 1003 1198 q 912 1030 967 1100 q 890 1029 908 1029 q 822 1035 859 1029 l 808 1030 l 798 1035 l 779 1030 l 756 1030 l 739 1030 l 710 1030 q 648 1035 684 1027 l 617 1030 l 596 1035 q 540 1012 572 1031 l 497 908 l 491 890 l 479 844 l 463 815 l 462 797 l 446 769 q 560 754 495 754 q 634 758 594 754 l 658 745 q 643 695 653 723 q 620 641 634 669 l 621 629 l 615 612 l 607 589 l 569 549 l 464 549 l 423 549 l 400 549 l 377 549 l 362 554 l 337 484 l 330 467 l 295 368 l 286 345 l 278 322 l 269 299 l 261 276 l 238 211 l 200 107 l 191 83 l 164 8 l 130 -3 q 57 9 99 9 q -6 3 28 9 l -25 -3 l -44 8 q -33 46 -41 24 q 7 136 -23 76 l 12 165 l 24 182 l 90 362 l 100 391 l 400 1215 l 434 1245 "},"r":{"x_min":-45.4375,"x_max":956,"ha":788,"o":"m 469 1230 q 546 1238 505 1230 q 598 1220 567 1233 q 588 1196 590 1203 q 571 1126 578 1170 l 560 1115 l 552 1091 l 545 1073 l 537 1050 l 528 1027 l 522 1009 l 521 991 l 504 962 l 490 921 l 487 898 l 479 875 l 463 833 q 451 790 461 820 q 430 740 440 761 l 413 693 l 413 675 q 361 554 385 620 l 340 493 l 325 453 q 314 418 321 437 q 272 324 299 377 l 263 282 l 223 154 l 180 36 l 147 -4 l 42 -4 l 18 -4 l 1 -4 l -22 -4 l -45 -4 l 54 271 l 54 289 l 65 318 q 82 356 71 328 q 95 400 91 384 l 111 429 q 124 471 117 450 q 146 523 128 482 l 146 540 l 159 558 l 169 587 q 208 712 180 631 l 217 734 l 231 775 q 245 809 238 786 q 273 904 262 853 l 297 968 l 310 991 l 333 1068 q 343 1094 337 1076 q 373 1197 360 1139 l 380 1214 q 439 1232 408 1216 q 469 1230 451 1230 m 682 1162 q 778 1232 704 1224 q 956 1079 956 1217 q 932 962 956 1029 q 909 860 926 907 q 704 628 858 720 l 696 605 q 750 558 726 594 l 759 552 l 761 511 q 756 464 755 483 l 713 347 l 696 300 l 690 282 l 679 253 l 671 229 l 658 195 l 616 77 l 609 60 l 601 36 l 595 19 l 582 2 q 534 -1 562 -1 q 477 2 506 -1 l 451 -4 l 434 -4 l 424 2 l 405 -4 l 375 -4 q 400 86 382 38 q 415 123 404 97 l 422 142 l 506 371 q 515 392 513 387 q 527 447 523 414 l 534 464 q 470 500 519 500 l 472 535 q 477 548 477 546 q 484 564 483 559 q 508 651 498 601 l 515 669 q 612 728 548 712 q 693 876 671 814 q 709 954 709 918 q 654 1050 709 1019 q 675 1092 669 1075 q 684 1139 684 1115 q 682 1162 684 1151 "},":":{"x_min":0,"x_max":0,"ha":157},"x":{"x_min":-34.859375,"x_max":1095.203125,"ha":847,"o":"m 1061 1228 l 1083 1239 q 1095 1210 1095 1227 q 1088 1180 1095 1199 q 948 1004 1026 1115 l 937 993 l 924 976 l 909 953 l 835 856 l 814 833 l 799 811 l 784 788 l 769 765 l 741 737 l 725 744 q 731 793 731 766 q 721 861 731 829 q 725 888 725 871 q 723 908 725 901 q 730 941 730 924 q 728 961 730 951 l 734 1019 l 730 1037 l 737 1054 q 829 1168 788 1099 q 885 1236 855 1194 l 1061 1228 m 557 1226 q 619 1236 584 1225 q 665 1193 647 1227 q 656 1127 656 1162 q 664 1063 656 1094 q 655 999 655 1034 q 659 952 655 981 q 666 940 657 943 q 653 870 653 907 q 655 841 653 856 l 646 806 q 645 776 645 788 q 648 723 645 761 q 642 665 642 696 l 640 648 l 641 636 l 640 634 q 639 625 639 629 q 640 618 639 620 l 639 589 l 639 559 q 634 521 634 542 q 639 477 634 498 l 632 460 l 638 431 q 634 399 634 414 q 645 348 634 372 l 636 325 q 637 296 637 307 q 636 254 637 284 l 642 225 q 636 189 636 207 q 645 148 636 169 q 635 84 635 118 q 640 37 635 60 l 639 20 l 623 -3 q 582 0 599 0 q 561 -1 565 0 l 521 1 l 498 2 l 458 4 l 442 5 l 413 6 q 406 74 406 38 q 409 123 406 99 l 404 141 l 411 158 q 405 171 412 164 q 414 228 414 198 q 406 276 414 253 l 413 305 l 415 382 l 413 417 l 411 441 l 415 464 l 415 493 l 416 523 l 422 651 l 415 663 l 418 687 l 424 727 q 425 749 425 735 q 421 792 425 769 l 429 839 l 425 874 l 431 915 l 430 956 q 432 987 432 975 q 428 1050 432 1011 l 429 1068 q 430 1081 430 1072 q 425 1115 430 1098 q 429 1142 429 1129 q 420 1186 429 1164 l 434 1220 q 505 1233 469 1233 q 557 1226 531 1233 m 318 498 l 339 491 q 332 373 331 438 l 319 315 q 328 268 328 293 q 317 214 328 242 q 246 107 299 162 q 178 11 220 56 q 145 9 161 9 q 93 14 118 9 l -8 7 l -34 25 l -16 72 q 96 208 38 124 l 107 219 l 127 241 l 147 276 l 165 293 l 178 310 l 196 338 l 214 355 q 273 441 236 396 q 298 474 279 458 l 318 498 "},"*":{"x_min":0,"x_max":0,"ha":334},"†":{"x_min":0,"x_max":0,"ha":306},"V":{"x_min":224.1875,"x_max":1032.484375,"ha":781,"o":"m 857 1231 l 961 1231 l 985 1231 l 1002 1231 l 1025 1231 q 1032 1219 1023 1224 q 940 1045 1007 1148 q 895 969 928 1010 l 887 946 l 872 923 l 839 864 l 827 847 l 819 824 l 796 777 l 776 754 l 757 719 l 741 691 q 694 609 728 657 l 647 510 l 614 487 q 612 512 612 504 q 631 598 612 550 l 624 609 l 637 708 l 637 725 q 653 830 650 767 q 654 843 654 838 q 652 859 654 851 l 649 882 l 679 934 l 689 946 l 710 986 l 724 1010 l 744 1051 l 763 1085 l 775 1103 q 822 1184 789 1132 l 837 1207 l 857 1231 m 502 1213 q 515 1219 508 1213 l 603 1207 q 591 1073 593 1159 l 589 1056 l 583 1038 l 577 1021 l 582 1004 q 578 993 580 1001 q 570 940 568 969 l 561 899 q 560 890 560 896 q 561 882 560 884 l 560 864 q 558 850 558 857 q 561 835 558 844 l 555 818 l 558 795 q 544 707 544 755 l 538 690 q 532 640 532 666 q 535 603 532 625 l 527 580 l 514 498 l 513 481 l 508 435 q 500 365 498 405 q 495 318 493 340 l 491 277 l 489 237 q 432 144 470 186 q 360 11 411 90 l 350 -1 q 290 -6 316 -6 q 228 -1 264 -6 q 228 8 228 2 q 224 34 228 22 q 230 51 225 36 q 252 167 252 110 q 249 213 252 188 q 254 226 252 220 q 263 283 265 256 q 269 318 269 303 l 281 382 l 278 405 q 282 435 282 418 l 296 487 l 297 557 q 299 565 299 559 q 298 574 299 571 l 311 609 l 305 626 l 318 661 q 329 771 318 705 q 337 833 337 801 q 336 852 337 846 q 351 911 345 877 l 343 922 l 349 969 q 365 1062 363 1006 l 378 1160 l 393 1201 q 474 1214 431 1214 l 501 1213 l 502 1213 "},"h":{"x_min":-25.765625,"x_max":1077.015625,"ha":819,"o":"m 402 1215 q 535 1245 461 1242 q 635 1233 571 1245 l 598 1117 l 571 1041 q 558 1011 562 1023 q 541 943 549 985 q 523 907 531 928 q 513 867 515 886 l 501 850 q 499 839 501 849 q 493 826 495 831 q 478 770 491 802 q 469 745 474 757 l 448 704 q 481 698 464 698 l 480 690 q 486 664 480 677 l 435 524 q 370 489 413 487 l 290 268 q 280 245 282 249 q 266 188 269 214 q 239 123 248 149 q 213 42 231 101 l 201 25 l 195 7 l 173 -4 q 115 5 147 5 q 77 2 101 5 q 61 3 70 3 q 42 2 51 3 q 22 -4 33 2 l -25 7 q 4 128 -20 58 q 53 240 23 180 l 72 309 l 84 327 q 96 374 89 354 q 122 431 105 396 q 148 522 131 475 l 165 565 l 402 1215 m 811 1175 q 856 1233 824 1197 l 1077 1233 q 1032 1132 1056 1194 q 994 1006 1011 1070 l 977 977 l 967 931 l 954 913 l 942 884 q 918 797 930 851 l 897 757 l 894 733 l 855 640 l 856 628 l 842 605 l 844 594 l 837 576 l 819 542 l 806 507 l 799 472 l 781 437 q 753 344 765 394 l 630 7 l 404 7 q 426 87 409 41 q 438 118 435 112 l 532 390 q 553 441 541 411 q 572 501 563 470 q 531 519 544 500 q 548 553 541 537 q 559 594 551 563 l 589 675 q 651 704 609 698 q 664 734 660 722 q 682 820 678 774 q 693 842 688 828 q 699 867 697 853 l 739 960 l 745 977 l 744 989 l 765 1047 q 792 1108 780 1076 q 811 1175 805 1143 "},"0":{"x_min":65,"x_max":963.75,"ha":800,"o":"m 682 1231 l 639 1114 l 622 1068 l 605 1021 q 534 969 572 1008 q 494 876 514 931 l 477 829 l 471 811 l 465 794 l 458 777 l 437 718 l 428 695 l 420 672 l 411 649 l 405 632 l 395 603 l 388 585 l 377 556 l 365 521 l 354 492 l 346 468 q 308 388 321 423 q 287 270 287 329 q 301 183 287 225 l 290 154 l 248 38 l 231 -8 q 65 190 65 5 q 133 495 65 306 q 165 579 147 535 l 224 742 l 253 788 l 267 828 l 291 893 l 303 910 l 314 940 l 347 998 l 404 1091 q 658 1231 511 1187 l 682 1231 m 775 1201 l 807 1225 q 963 1079 925 1201 q 956 1027 954 1056 q 931 928 944 993 q 907 829 919 894 l 900 814 q 892 771 894 799 l 883 748 l 877 730 l 869 707 l 860 684 l 852 660 l 843 637 l 835 614 l 826 590 l 784 474 l 767 428 l 756 416 l 740 370 q 713 312 726 350 l 699 288 l 693 271 l 684 247 l 672 230 l 663 206 q 577 96 624 167 q 337 -2 465 16 q 362 105 341 44 q 383 154 370 127 q 384 163 384 158 q 383 172 384 169 q 467 242 415 213 l 497 276 q 506 296 504 290 q 512 317 511 309 l 534 364 l 636 643 l 623 655 l 651 684 l 660 725 q 682 771 672 742 q 702 816 695 796 q 718 870 710 836 l 746 946 l 754 969 q 710 1021 734 986 l 775 1201 "},".":{"x_min":5,"x_max":215,"ha":353,"o":"m 170 197 l 158 197 l 170 197 q 215 116 215 157 q 209 87 215 102 q 149 12 195 48 q 66 -11 98 -11 q 5 70 5 -11 q 6 98 5 88 q 158 197 62 176 l 170 197 "},"”":{"x_min":0,"x_max":0,"ha":203},"@":{"x_min":0,"x_max":0,"ha":393},"f":{"x_min":-44.765625,"x_max":1007.15625,"ha":763,"o":"m 434 1245 l 550 1245 l 565 1238 l 629 1238 q 673 1233 644 1238 l 691 1233 l 772 1233 l 815 1238 q 844 1236 827 1236 q 884 1238 862 1236 l 893 1233 l 911 1233 l 940 1233 l 977 1238 l 1007 1226 q 991 1166 1003 1198 q 912 1030 967 1100 q 890 1029 908 1029 q 822 1035 859 1029 l 808 1030 l 798 1035 l 779 1030 l 756 1030 l 739 1030 l 710 1030 q 648 1035 684 1027 l 617 1030 l 596 1035 q 540 1012 572 1031 l 497 908 l 491 890 l 479 844 l 463 815 l 462 797 l 446 769 q 560 754 495 754 q 634 758 594 754 l 658 745 q 643 695 653 723 q 620 641 634 669 l 621 629 l 615 612 l 607 589 l 569 549 l 464 549 l 423 549 l 400 549 l 377 549 l 362 554 l 337 484 l 330 467 l 295 368 l 286 345 l 278 322 l 269 299 l 261 276 l 238 211 l 200 107 l 191 83 l 164 8 l 130 -3 q 57 9 99 9 q -6 3 28 9 l -25 -3 l -44 8 q -33 46 -41 24 q 7 136 -23 76 l 12 165 l 24 182 l 90 362 l 100 391 l 400 1215 l 434 1245 "},";":{"x_min":0,"x_max":0,"ha":161},"“":{"x_min":0,"x_max":0,"ha":232},"i":{"x_min":-24.421875,"x_max":614.46875,"ha":372,"o":"m 444 1222 q 486 1231 461 1222 l 495 1224 q 545 1231 521 1231 q 614 1219 581 1231 l 592 1127 q 569 1081 580 1110 l 571 1069 l 565 1051 l 558 1034 l 548 1005 l 512 908 l 506 890 l 485 832 l 474 803 l 445 722 l 407 618 l 399 595 l 384 555 l 378 538 l 372 521 l 365 503 l 338 429 l 332 411 l 325 393 l 300 324 l 294 307 l 258 209 l 250 186 l 208 70 l 202 53 l 185 7 q 63 -10 140 7 q -3 2 36 2 q -24 1 -19 2 l -17 36 l 101 365 l 102 382 l 118 411 l 125 446 l 141 475 l 149 509 q 155 528 149 515 q 181 584 166 557 l 180 595 l 243 769 l 251 792 l 287 890 q 312 969 300 934 q 352 1069 324 1001 l 356 1098 l 369 1115 l 375 1150 l 396 1208 l 425 1225 q 444 1222 436 1222 "},"6":{"x_min":89,"x_max":975,"ha":799,"o":"m 698 1238 l 670 1145 l 653 1098 l 643 1086 l 636 1068 q 519 939 575 1021 q 506 900 515 925 q 460 793 486 846 l 453 775 l 447 757 q 470 740 453 740 q 518 757 488 740 q 500 656 520 710 q 484 616 494 638 l 458 563 l 448 552 q 301 391 344 511 q 281 316 289 358 q 278 287 278 298 q 326 199 278 232 q 306 134 318 168 q 273 52 298 111 l 267 35 l 260 17 l 248 0 q 89 198 89 21 q 152 483 89 310 q 175 544 156 497 l 182 563 q 206 651 189 602 q 270 787 230 716 l 297 863 l 347 951 l 354 968 l 382 1015 l 388 1033 l 449 1103 l 460 1116 l 470 1127 l 484 1133 l 494 1145 l 506 1162 q 656 1233 569 1207 q 671 1245 661 1234 l 698 1238 m 747 1122 q 816 1238 769 1179 q 975 1078 975 1181 q 964 1020 975 1050 q 931 957 951 989 q 796 910 873 947 q 799 938 799 924 q 735 1080 799 1022 q 747 1122 739 1099 m 614 745 l 639 751 q 783 552 783 692 q 754 412 783 491 q 727 346 741 374 q 354 0 642 92 q 339 23 351 10 l 399 187 q 552 349 512 237 q 559 369 558 365 q 573 401 568 387 q 588 476 588 440 q 552 575 588 531 q 558 588 558 588 q 564 623 564 606 q 563 639 564 634 l 599 704 l 614 745 "},"A":{"x_min":-42.046875,"x_max":851.84375,"ha":834,"o":"m 639 1234 q 688 1258 663 1232 q 769 1231 718 1231 q 833 1240 795 1231 q 851 1211 835 1225 q 825 1089 833 1164 l 814 1059 l 811 1036 l 810 1034 q 809 1028 809 1032 q 811 1019 809 1021 l 799 973 l 797 949 l 786 920 q 794 908 792 918 l 793 906 q 792 900 792 902 q 794 891 792 897 q 788 878 792 889 q 775 810 777 850 q 761 738 761 777 q 765 699 761 721 q 743 594 745 650 l 734 554 q 722 455 725 511 q 705 362 710 415 l 699 345 l 699 343 q 701 332 697 338 l 695 286 l 687 263 l 696 240 l 668 147 l 670 135 l 659 42 l 644 2 l 541 7 l 524 7 q 475 2 502 9 l 459 7 l 431 7 q 430 27 430 13 q 458 194 430 92 q 400 200 436 200 q 366 199 381 200 q 359 210 368 205 l 368 251 q 448 391 421 310 l 501 408 q 512 501 502 448 l 510 513 l 511 515 q 509 524 513 521 q 516 541 510 527 q 530 600 526 569 q 545 659 533 624 q 545 672 545 663 q 552 722 545 693 l 554 746 l 559 775 q 579 862 559 807 l 577 874 l 577 903 l 585 944 l 590 973 q 595 1019 589 988 q 598 1026 596 1020 q 600 1037 600 1032 q 596 1054 600 1046 l 606 1095 l 606 1129 l 619 1165 l 620 1199 l 639 1234 m 434 845 l 470 833 q 447 740 452 786 l 442 727 q 432 664 432 699 l 423 641 l 424 630 l 415 606 l 413 583 l 383 467 l 382 465 q 381 457 381 461 q 382 449 381 455 l 376 432 l 373 408 q 324 321 362 367 l 307 275 l 295 257 l 288 240 l 263 187 l 254 176 l 245 153 q 196 48 219 114 l 185 36 l 171 13 q 71 -4 126 14 l -1 2 l -18 2 l -36 2 l -42 18 q 7 106 -27 60 q 83 234 29 157 l 124 316 l 143 350 l 169 391 l 216 472 l 226 501 l 247 524 q 300 623 261 564 l 368 746 l 396 792 l 405 815 l 434 845 "},"‘":{"x_min":0,"x_max":0,"ha":161},"n":{"x_min":-42.125,"x_max":981.390625,"ha":788,"o":"m 189 13 l 68 -3 q 41 -5 54 -5 q -42 26 -10 -5 l -17 95 l -9 112 l 25 210 l 34 233 l 40 250 l 47 267 q 58 314 54 288 q 75 349 69 331 q 85 389 83 369 q 104 429 97 410 q 115 469 109 443 q 122 486 117 473 q 134 538 130 509 q 143 556 139 546 q 147 573 147 566 l 162 596 q 176 654 164 618 q 185 677 182 671 q 195 707 189 690 q 231 786 205 737 l 238 804 l 259 797 q 271 751 257 775 q 266 694 266 721 q 283 595 266 644 l 280 572 l 288 532 l 291 463 l 293 452 l 303 434 l 295 411 l 308 382 l 302 353 l 306 330 q 304 317 304 324 q 306 302 304 309 q 252 193 273 250 q 223 71 232 139 l 212 60 l 189 13 m 567 24 q 551 13 562 23 l 532 11 q 459 42 491 11 q 462 81 462 66 q 449 175 462 124 l 452 198 l 445 209 q 446 231 446 223 q 437 296 446 261 l 437 313 l 433 330 q 434 350 434 344 q 422 411 434 380 l 428 428 l 425 452 l 414 469 q 416 490 416 479 q 401 544 416 518 q 404 563 404 553 q 403 578 404 567 l 403 580 q 401 590 405 586 l 402 603 q 387 677 402 641 l 393 694 l 387 723 l 379 751 l 373 780 q 374 801 374 787 q 359 867 374 834 l 365 884 q 352 942 357 904 l 345 953 l 343 965 q 345 988 345 976 q 332 1046 345 1018 l 342 1103 q 355 1134 347 1113 q 365 1167 362 1155 l 380 1207 q 431 1215 406 1215 q 484 1207 452 1215 l 528 1218 l 552 1218 l 567 1212 l 566 1200 q 581 1097 566 1158 l 581 1096 q 584 1086 579 1090 q 581 1075 581 1081 l 582 1068 q 581 1056 581 1065 q 584 1010 581 1047 l 590 993 q 588 984 588 990 q 589 976 588 978 l 590 947 q 601 884 588 915 l 595 866 l 600 849 q 605 814 599 832 l 604 780 l 604 751 l 609 716 l 613 681 l 616 658 l 621 624 l 619 589 l 624 555 q 640 456 625 512 q 639 437 639 449 q 649 387 639 411 q 647 366 647 379 q 649 341 647 352 l 660 306 q 657 266 655 287 l 604 122 l 604 110 l 593 93 l 567 24 m 760 548 l 720 565 l 740 617 l 735 669 l 734 727 l 727 738 l 727 755 l 720 767 q 720 779 720 770 q 718 824 720 788 l 712 842 q 708 859 713 851 l 710 882 l 716 911 l 704 928 l 707 951 l 696 969 q 705 1009 704 989 l 722 1055 q 731 1082 725 1063 q 764 1153 745 1119 q 773 1180 770 1174 l 785 1211 l 822 1217 q 858 1216 836 1216 q 956 1223 904 1216 l 973 1223 q 981 1210 972 1216 q 958 1119 975 1168 q 923 1037 944 1081 l 923 1020 l 886 922 q 878 896 882 907 q 865 865 872 881 q 854 818 853 833 l 847 801 l 829 749 l 820 726 l 798 652 l 777 576 l 760 548 "},"O":{"x_min":48.828125,"x_max":923.0625,"ha":781,"o":"m 396 1102 q 625 1224 491 1181 q 642 1194 642 1221 q 622 1112 642 1164 q 592 1039 610 1078 q 527 987 570 1006 l 514 964 l 495 947 l 453 831 q 451 822 451 827 q 453 814 451 820 l 438 791 l 432 774 q 421 738 431 763 q 402 693 413 713 l 381 618 l 346 520 l 335 492 l 331 462 l 310 422 q 297 368 309 402 l 289 347 q 261 255 276 316 q 301 209 265 224 l 301 174 q 290 148 291 153 l 280 116 q 260 72 267 93 q 244 18 255 59 l 232 1 q 204 0 220 0 q 63 105 92 0 l 48 99 q 56 215 58 143 l 63 249 q 72 307 74 279 l 96 387 l 103 405 q 124 497 103 441 q 129 511 126 500 q 135 543 135 525 l 147 561 q 170 639 156 599 q 210 733 185 677 l 260 871 l 273 889 l 285 907 l 299 947 q 352 1045 327 991 l 364 1062 l 396 1102 m 711 1112 q 729 1177 722 1141 l 759 1212 q 913 1096 857 1191 q 912 1083 912 1087 q 923 1045 912 1064 l 902 953 l 902 940 l 902 923 q 895 909 901 923 q 878 825 882 872 l 875 802 l 867 779 q 855 755 859 765 q 843 699 847 731 l 834 676 l 826 653 l 824 630 l 809 607 q 792 553 803 582 q 743 439 774 502 l 737 422 l 729 399 l 722 382 l 710 347 l 704 330 q 648 226 668 283 l 624 192 l 591 133 q 343 -10 486 30 q 341 21 341 10 q 364 135 341 72 q 387 192 371 154 l 396 215 q 477 278 438 236 l 494 320 q 536 456 514 375 l 552 485 l 547 502 l 569 531 l 712 923 q 676 1016 714 978 q 685 1056 683 1033 q 711 1112 701 1085 "},"3":{"x_min":36,"x_max":948.828125,"ha":792,"o":"m 304 964 q 642 1237 408 1162 q 703 1214 676 1240 q 676 1160 687 1189 q 660 1098 667 1136 q 621 1022 636 1062 q 458 877 523 986 q 366 912 405 877 q 320 959 343 927 l 304 964 m 741 1150 q 759 1208 752 1179 l 792 1237 q 948 1022 948 1168 q 921 885 948 959 q 835 714 892 806 q 724 633 786 687 q 756 563 728 595 q 755 552 755 555 q 765 522 755 536 q 719 324 751 410 q 309 5 613 33 l 320 36 l 335 75 l 377 191 q 455 243 406 219 q 531 384 512 328 q 545 449 545 421 q 450 534 545 522 q 463 604 451 562 l 524 737 q 689 824 613 741 l 703 864 l 721 912 l 733 946 q 695 1016 737 992 q 703 1068 703 1040 q 741 1150 727 1108 m 234 377 l 268 371 q 265 329 265 353 q 313 191 265 253 l 309 179 q 279 118 291 148 q 262 51 269 86 q 215 -12 241 18 l 133 17 q 36 179 36 75 q 58 292 36 230 l 66 313 l 109 336 q 201 365 147 340 l 219 365 l 234 377 "},"]":{"x_min":0,"x_max":0,"ha":212},"m":{"x_min":-52.21875,"x_max":1159.078125,"ha":920,"o":"m 971 1216 l 1003 1238 q 1091 1225 1037 1225 q 1150 1229 1111 1225 l 1159 1222 q 1139 1156 1153 1197 l 1119 1106 l 1112 1089 l 1106 1072 l 1079 1002 l 1072 985 l 1073 973 q 1068 944 1067 958 q 1051 910 1056 925 q 1043 880 1048 904 q 1037 869 1039 873 q 1034 857 1037 868 q 1026 841 1029 849 l 1023 828 l 1007 805 l 1000 770 l 991 747 l 973 701 l 962 672 q 945 613 956 657 l 920 550 l 921 538 l 907 515 q 900 489 906 508 q 882 451 893 472 q 869 404 881 433 l 862 370 l 836 335 l 839 312 q 806 242 828 283 l 794 196 l 788 179 q 782 169 784 175 q 781 161 781 165 l 773 143 l 767 126 q 762 117 764 122 q 760 109 760 113 l 751 86 l 727 22 q 619 9 677 9 q 543 14 588 9 q 589 189 548 80 l 599 201 q 613 253 603 226 q 646 322 623 281 q 657 372 648 347 q 674 409 662 388 q 695 479 678 435 l 800 763 q 811 788 808 781 q 826 845 818 807 l 934 1123 q 963 1198 946 1157 l 971 1216 m 400 1213 l 430 1230 q 443 1230 433 1230 q 491 1222 467 1230 q 539 1227 508 1227 l 556 1226 l 597 1225 q 588 1140 588 1184 q 590 1103 588 1122 l 581 1080 l 588 1067 l 573 968 l 575 945 q 573 930 573 939 q 575 915 573 923 l 567 881 q 561 832 561 858 q 566 787 561 809 q 557 740 557 766 q 558 723 557 728 l 550 688 l 575 676 l 637 762 l 667 808 l 686 843 l 701 854 l 717 877 q 758 865 739 875 q 752 846 758 859 q 718 778 739 810 l 720 766 l 708 749 l 706 731 l 697 708 l 691 690 l 659 609 q 649 587 653 599 q 640 545 642 569 l 628 528 l 624 504 q 569 378 597 458 l 559 337 l 495 233 l 481 227 l 475 210 l 467 192 l 447 169 l 438 146 l 415 118 l 401 95 q 392 77 396 89 q 387 60 391 74 l 360 20 q 298 9 334 12 q 312 91 298 46 l 317 132 l 311 150 l 321 173 l 314 185 l 315 188 q 316 194 316 190 q 314 202 316 199 l 322 237 l 328 266 l 324 284 l 327 307 l 324 331 l 338 424 l 327 442 q 338 518 338 479 q 334 565 338 542 q 339 614 339 584 q 338 635 339 628 l 345 652 l 337 676 q 345 744 345 709 q 344 770 345 752 l 344 799 q 345 813 345 808 q 343 828 345 821 q 350 886 350 853 q 346 939 350 912 l 353 956 l 346 968 l 356 1009 l 354 1050 l 348 1080 l 400 1213 m 208 673 l 202 673 l 208 673 l 239 648 q 238 612 238 637 q 241 548 238 578 l 235 531 q 237 505 237 519 q 227 438 237 475 l 234 426 q 223 371 223 400 q 224 356 223 361 l 219 327 l 221 304 l 216 274 q 219 240 219 262 q 217 204 219 231 l 172 88 l 168 47 l 161 30 l 146 6 l 134 -10 q 74 -14 118 -9 l 10 -11 l -7 -18 l -23 -11 l -36 -17 l -52 -10 q -50 4 -50 -4 q -52 18 -50 11 q -36 53 -45 29 q -21 111 -27 77 q -4 149 -9 135 q 3 174 -4 151 l 27 238 l 40 256 l 58 302 l 72 354 l 78 383 l 110 464 q 118 488 110 464 q 158 574 136 535 l 174 615 l 179 644 l 202 673 l 208 673 "},"9":{"x_min":40.015625,"x_max":910.859375,"ha":759,"o":"m 674 1233 l 646 1158 l 640 1140 q 634 1127 638 1137 q 628 1094 628 1112 l 619 1082 l 611 1059 q 493 961 554 1022 l 467 891 l 461 874 l 425 776 q 472 665 422 707 q 454 595 469 639 q 402 486 436 547 q 230 667 230 515 q 250 787 230 720 q 272 863 261 832 q 435 1135 320 996 q 510 1181 463 1148 q 524 1204 517 1189 q 586 1233 554 1210 q 631 1245 607 1234 l 674 1233 m 736 1199 q 739 1221 739 1207 l 763 1238 q 908 1099 864 1208 q 906 1074 906 1087 q 910 1041 906 1058 q 905 995 904 1016 l 885 925 l 893 913 l 868 844 l 867 827 l 861 810 l 854 775 l 829 705 l 822 687 l 816 671 l 810 653 l 793 607 q 777 560 787 585 q 722 427 758 506 l 711 399 l 705 381 l 691 358 l 682 335 l 672 306 q 632 230 647 271 q 548 126 596 195 q 307 5 442 40 l 305 45 q 360 150 335 84 l 355 167 q 539 413 480 254 q 566 509 558 466 q 496 491 531 506 q 497 499 497 497 q 493 514 497 507 l 499 549 q 516 581 512 567 q 524 619 522 599 q 558 694 539 656 q 689 827 654 732 l 695 844 q 712 884 706 865 q 724 942 724 916 q 680 1029 724 993 q 684 1045 684 1036 q 675 1064 684 1056 q 701 1113 693 1088 q 713 1168 711 1141 q 736 1199 730 1183 m 56 254 q 192 324 119 274 l 221 324 q 278 179 225 244 l 297 167 q 283 111 293 143 l 278 99 q 202 16 249 16 q 165 28 186 16 q 40 208 58 72 l 56 254 "},"l":{"x_min":-34.59375,"x_max":634.8125,"ha":755,"o":"m 499 1217 q 511 1223 505 1217 q 541 1224 524 1224 q 618 1217 579 1224 q 583 1076 612 1155 q 546 987 569 1038 l 543 964 q 531 938 535 950 q 522 907 527 929 l 511 890 q 503 871 509 887 q 486 809 492 838 l 480 792 l 474 774 l 456 740 l 442 700 l 438 660 q 406 591 423 635 q 397 562 398 570 l 390 545 l 384 528 l 367 482 l 359 459 l 353 442 l 346 407 l 326 367 l 313 332 l 299 292 l 286 258 l 271 217 q 340 200 299 200 q 394 206 365 200 q 438 197 411 197 q 472 200 450 197 q 537 191 501 191 q 616 200 571 191 l 634 188 q 604 86 627 146 q 582 27 598 66 l 575 10 q 518 -7 549 0 q 435 0 486 0 q 387 -1 411 0 l 370 -1 l 301 -1 l 284 -1 l 255 -1 l 226 -1 l 209 -1 l 186 -1 l 158 -1 l 140 -1 l 65 -1 l 42 -1 l 22 5 l 0 5 l -22 10 l -34 21 l 69 309 q 80 336 74 319 l 86 352 q 105 407 96 380 q 124 452 113 422 q 141 504 134 479 l 160 544 l 387 1183 l 409 1211 l 451 1217 l 497 1217 l 499 1217 l 499 1217 "},"8":{"x_min":59,"x_max":971.21875,"ha":830,"o":"m 648 1220 l 666 1238 q 708 1208 685 1231 q 694 1177 700 1196 q 684 1145 687 1157 q 671 1113 678 1132 q 659 1075 668 1106 l 624 1012 l 571 977 q 556 942 562 959 q 544 901 549 924 l 527 873 l 521 837 l 495 768 q 533 727 505 740 l 536 687 q 512 640 519 660 q 500 588 504 618 l 487 554 q 472 531 479 546 q 376 472 430 513 q 333 386 364 441 q 295 252 316 338 q 319 170 319 214 q 306 101 319 137 q 251 3 288 52 q 59 186 59 33 q 86 319 59 245 q 195 531 119 409 l 303 623 l 325 635 q 291 776 291 703 q 314 900 291 837 q 486 1156 357 1020 l 630 1220 l 648 1220 m 775 1203 q 816 1238 796 1217 q 971 1031 971 1176 q 944 896 971 970 q 855 722 916 820 q 809 675 830 706 q 733 612 763 654 q 782 443 782 527 q 763 335 782 390 q 505 32 709 186 q 451 9 480 30 q 386 -7 419 7 q 348 15 360 -10 l 328 9 q 377 108 358 55 q 400 189 389 141 q 530 322 482 236 q 554 374 545 350 q 567 444 567 410 q 542 531 567 491 q 564 623 559 573 l 576 641 l 577 658 l 595 693 l 616 734 q 739 891 703 790 q 760 971 754 930 q 725 1017 762 1006 q 725 1027 725 1020 q 720 1052 725 1041 q 745 1106 734 1076 q 763 1168 757 1140 l 775 1203 "},"p":{"x_min":-46.125,"x_max":916.953125,"ha":744,"o":"m 709 1206 q 711 1214 711 1212 l 742 1238 q 916 1054 916 1208 q 884 899 916 989 l 867 858 q 855 821 862 841 q 472 542 756 548 q 499 633 480 583 l 513 671 l 535 730 q 650 823 611 753 q 682 928 666 862 l 706 992 q 647 1039 697 1035 q 653 1056 647 1040 q 680 1115 663 1084 l 704 1197 q 709 1206 706 1199 m 507 1232 l 530 1232 l 548 1232 l 571 1232 l 584 1220 q 564 1137 580 1181 q 520 1045 550 1097 q 484 911 514 991 l 473 898 l 473 881 l 437 782 l 426 752 l 418 729 l 379 624 l 370 600 l 364 583 l 366 571 l 351 531 l 338 495 l 329 455 l 291 349 l 282 326 l 240 209 l 233 191 l 217 144 l 200 98 l 183 51 l 162 10 q 20 -3 101 -3 q -46 -1 -11 -3 q 3 155 -33 54 l 13 182 l 28 220 l 111 448 l 120 472 l 126 507 l 155 571 q 191 688 166 619 l 333 1074 q 345 1118 339 1103 q 402 1232 363 1167 l 507 1232 "},"4":{"x_min":75.28125,"x_max":1009.203125,"ha":838,"o":"m 984 1225 l 1001 1225 q 1009 1213 1001 1218 l 984 1144 l 978 1127 l 942 1028 l 933 1005 l 906 930 l 868 826 l 862 809 l 853 786 l 845 763 l 803 647 l 796 630 l 788 607 l 781 589 l 771 560 l 765 543 l 756 520 l 750 502 l 735 462 q 756 464 748 464 l 757 464 q 798 428 798 464 q 787 381 798 410 q 746 301 761 345 q 739 283 739 284 q 666 271 710 282 l 640 202 l 634 185 l 599 86 l 590 63 l 582 40 l 573 17 l 556 0 l 451 0 l 428 0 l 411 0 l 388 0 l 379 6 q 402 103 381 46 l 413 132 l 550 508 l 564 531 l 580 577 l 602 635 l 653 774 q 661 794 649 766 q 676 855 671 825 l 688 872 l 689 889 l 704 930 q 717 961 712 946 q 734 1045 732 1002 q 747 1071 741 1055 q 753 1098 752 1083 l 765 1115 l 775 1144 l 790 1167 q 857 1225 832 1178 l 858 1225 q 871 1231 863 1225 l 984 1225 m 620 971 l 642 953 l 595 838 l 588 820 l 580 797 l 574 779 l 563 751 l 551 733 l 538 699 l 543 681 q 519 647 529 669 l 511 623 q 412 525 469 588 l 398 520 l 381 502 l 370 491 l 346 474 q 396 465 368 465 q 425 467 409 465 l 448 451 l 408 323 l 396 306 l 387 283 l 360 271 q 305 276 339 276 q 233 271 267 276 l 192 271 l 175 271 l 158 271 l 140 271 l 82 271 q 75 283 84 278 q 93 340 84 317 q 121 410 106 375 l 138 456 q 271 600 196 508 q 326 653 298 617 l 351 676 q 426 756 377 712 l 448 786 l 476 814 l 499 843 l 530 866 l 552 895 l 576 912 l 594 947 l 620 971 "},"‡":{"x_min":0,"x_max":0,"ha":228},"R":{"x_min":-45.4375,"x_max":956,"ha":788,"o":"m 469 1230 q 546 1238 505 1230 q 598 1220 567 1233 q 588 1196 590 1203 q 571 1126 578 1170 l 560 1115 l 552 1091 l 545 1073 l 537 1050 l 528 1027 l 522 1009 l 521 991 l 504 962 l 490 921 l 487 898 l 479 875 l 463 833 q 451 790 461 820 q 430 740 440 761 l 413 693 l 413 675 q 361 554 385 620 l 340 493 l 325 453 q 314 418 321 437 q 272 324 299 377 l 263 282 l 223 154 l 180 36 l 147 -4 l 42 -4 l 18 -4 l 1 -4 l -22 -4 l -45 -4 l 54 271 l 54 289 l 65 318 q 82 356 71 328 q 95 400 91 384 l 111 429 q 124 471 117 450 q 146 523 128 482 l 146 540 l 159 558 l 169 587 q 208 712 180 631 l 217 734 l 231 775 q 245 809 238 786 q 273 904 262 853 l 297 968 l 310 991 l 333 1068 q 343 1094 337 1076 q 373 1197 360 1139 l 380 1214 q 439 1232 408 1216 q 469 1230 451 1230 m 682 1162 q 778 1232 704 1224 q 956 1079 956 1217 q 932 962 956 1029 q 909 860 926 907 q 704 628 858 720 l 696 605 q 750 558 726 594 l 759 552 l 761 511 q 756 464 755 483 l 713 347 l 696 300 l 690 282 l 679 253 l 671 229 l 658 195 l 616 77 l 609 60 l 601 36 l 595 19 l 582 2 q 534 -1 562 -1 q 477 2 506 -1 l 451 -4 l 434 -4 l 424 2 l 405 -4 l 375 -4 q 400 86 382 38 q 415 123 404 97 l 422 142 l 506 371 q 515 392 513 387 q 527 447 523 414 l 534 464 q 470 500 519 500 l 472 535 q 477 548 477 546 q 484 564 483 559 q 508 651 498 601 l 515 669 q 612 728 548 712 q 693 876 671 814 q 709 954 709 918 q 654 1050 709 1019 q 675 1092 669 1075 q 684 1139 684 1115 q 682 1162 684 1151 "},"o":{"x_min":48.828125,"x_max":923.0625,"ha":781,"o":"m 396 1102 q 625 1224 491 1181 q 642 1194 642 1221 q 622 1112 642 1164 q 592 1039 610 1078 q 527 987 570 1006 l 514 964 l 495 947 l 453 831 q 451 822 451 827 q 453 814 451 820 l 438 791 l 432 774 q 421 738 431 763 q 402 693 413 713 l 381 618 l 346 520 l 335 492 l 331 462 l 310 422 q 297 368 309 402 l 289 347 q 261 255 276 316 q 301 209 265 224 l 301 174 q 290 148 291 153 l 280 116 q 260 72 267 93 q 244 18 255 59 l 232 1 q 204 0 220 0 q 63 105 92 0 l 48 99 q 56 215 58 143 l 63 249 q 72 307 74 279 l 96 387 l 103 405 q 124 497 103 441 q 129 511 126 500 q 135 543 135 525 l 147 561 q 170 639 156 599 q 210 733 185 677 l 260 871 l 273 889 l 285 907 l 299 947 q 352 1045 327 991 l 364 1062 l 396 1102 m 711 1112 q 729 1177 722 1141 l 759 1212 q 913 1096 857 1191 q 912 1083 912 1087 q 923 1045 912 1064 l 902 953 l 902 940 l 902 923 q 895 909 901 923 q 878 825 882 872 l 875 802 l 867 779 q 855 755 859 765 q 843 699 847 731 l 834 676 l 826 653 l 824 630 l 809 607 q 792 553 803 582 q 743 439 774 502 l 737 422 l 729 399 l 722 382 l 710 347 l 704 330 q 648 226 668 283 l 624 192 l 591 133 q 343 -10 486 30 q 341 21 341 10 q 364 135 341 72 q 387 192 371 154 l 396 215 q 477 278 438 236 l 494 320 q 536 456 514 375 l 552 485 l 547 502 l 569 531 l 712 923 q 676 1016 714 978 q 685 1056 683 1033 q 711 1112 701 1085 "},"5":{"x_min":61,"x_max":1030.90625,"ha":815,"o":"m 944 1232 q 976 1238 958 1232 l 1030 1227 q 1009 1144 1024 1185 q 950 1021 990 1091 q 906 1024 933 1024 q 813 1016 866 1024 l 798 1021 l 778 1016 l 756 1021 l 731 1016 l 710 1021 l 680 1021 l 655 1016 l 620 1016 l 598 1003 q 544 904 585 960 l 538 886 l 512 845 l 505 827 l 488 780 q 521 793 502 782 l 541 798 l 544 757 q 505 685 519 723 q 491 628 496 660 l 470 587 q 368 534 423 576 l 351 534 q 247 651 322 595 l 240 664 l 230 669 l 233 693 l 273 786 l 280 804 l 321 886 l 336 927 l 350 951 l 408 1080 l 429 1103 l 435 1124 q 461 1173 444 1147 l 459 1185 l 474 1226 q 503 1226 480 1226 q 599 1232 542 1226 l 615 1226 l 634 1232 l 652 1232 l 733 1232 l 915 1232 l 944 1232 m 609 757 l 640 798 q 807 584 807 745 q 773 415 807 510 q 752 364 763 388 q 362 6 612 6 q 335 7 341 6 q 379 113 347 41 l 394 153 l 393 165 q 480 229 427 206 q 522 311 492 262 l 556 405 l 556 406 q 554 417 559 412 q 567 446 562 431 q 583 511 577 473 l 590 529 l 542 593 l 591 710 l 609 757 m 280 371 l 274 371 l 286 371 l 280 371 l 292 371 l 286 371 l 292 371 l 298 341 q 285 277 285 308 q 325 189 285 226 q 305 119 314 144 l 299 103 q 202 -12 257 -12 q 163 1 184 -12 q 61 187 61 62 q 76 294 61 234 l 246 359 l 274 371 l 280 371 "}}}
